<?xml version="1.0" standalone="no"?><!DOCTYPE svg PUBLIC "-//W3C//DTD SVG 1.1//EN" "http://www.w3.org/Graphics/SVG/1.1/DTD/svg11.dtd"><svg class="icon" width="400px" height="400.00px" viewBox="0 0 1024 1024" version="1.1" xmlns="http://www.w3.org/2000/svg"><path d="M467.17 201.87L159 484.39c-19.25 17.65-6.76 49.73 19.34 49.73h663.4c26.11 0 38.59-32.08 19.35-49.73L552.92 201.87a63.44 63.44 0 0 0-85.75 0z" fill="#FF9C85" /><path d="M229.34 449.02m57.12 0l447.17 0q57.12 0 57.12 57.12l0 275.73q0 57.12-57.12 57.12l-447.17 0q-57.12 0-57.12-57.12l0-275.73q0-57.12 57.12-57.12Z" fill="#FF812C" /><path d="M733.63 449H286.45a57.11 57.11 0 0 0-57.11 57.12v28h561.41v-28A57.12 57.12 0 0 0 733.63 449z" fill="#E55C00" /><path d="M442.08 616.97m35.2 0l65.52 0q35.2 0 35.2 35.2l0 99.67q0 35.2-35.2 35.2l-65.52 0q-35.2 0-35.2-35.2l0-99.67q0-35.2 35.2-35.2Z" fill="#E55C00" /></svg>