<?xml version="1.0" standalone="no"?><!DOCTYPE svg PUBLIC "-//W3C//DTD SVG 1.1//EN" "http://www.w3.org/Graphics/SVG/1.1/DTD/svg11.dtd"><svg t="1715587055004" class="icon" viewBox="0 0 1024 1024" version="1.1" xmlns="http://www.w3.org/2000/svg" p-id="88909" width="81" height="81" xmlns:xlink="http://www.w3.org/1999/xlink"><path d="M175.7184 20.48h51.8144v51.8144H175.7184zM227.5328 20.48h51.8144v51.8144h-51.8144z" fill="#553A49" p-id="88910"></path><path d="M279.1424 20.48h51.8144v51.8144h-51.8144zM330.9568 20.48h51.8144v51.8144h-51.8144z" fill="#553A49" p-id="88911"></path><path d="M382.5664 20.48h51.8144v51.8144h-51.8144zM434.3808 20.48h51.8144v51.8144h-51.8144z" fill="#553A49" p-id="88912"></path><path d="M486.1952 20.48h51.8144v51.8144h-51.8144z" fill="#553A49" p-id="88913"></path><path d="M537.8048 20.48h51.8144v51.8144h-51.8144z" fill="#553A49" p-id="88914"></path><path d="M589.6192 20.48h51.8144v51.8144h-51.8144zM641.4336 20.48h51.8144v51.8144h-51.8144z" fill="#553A49" p-id="88915"></path><path d="M693.0432 20.48h51.8144v51.8144h-51.8144z" fill="#553A49" p-id="88916"></path><path d="M744.8576 20.48h51.8144v51.8144h-51.8144z" fill="#553A49" p-id="88917"></path><path d="M796.4672 20.48h51.8144v51.8144h-51.8144z" fill="#553A49" p-id="88918"></path><path d="M175.7184 72.2944h51.8144v51.8144H175.7184zM227.5328 72.2944h51.8144v51.8144h-51.8144z" fill="#50D3FF" p-id="88919"></path><path d="M279.1424 72.2944h51.8144v51.8144h-51.8144zM330.9568 72.2944h51.8144v51.8144h-51.8144z" fill="#50D3FF" p-id="88920"></path><path d="M382.5664 72.2944h51.8144v51.8144h-51.8144zM434.3808 72.2944h51.8144v51.8144h-51.8144z" fill="#50D3FF" p-id="88921"></path><path d="M486.1952 72.2944h51.8144v51.8144h-51.8144z" fill="#50D3FF" p-id="88922"></path><path d="M537.8048 72.2944h51.8144v51.8144h-51.8144z" fill="#50D3FF" p-id="88923"></path><path d="M589.6192 72.2944h51.8144v51.8144h-51.8144zM641.4336 72.2944h51.8144v51.8144h-51.8144z" fill="#50D3FF" p-id="88924"></path><path d="M693.0432 72.2944h51.8144v51.8144h-51.8144z" fill="#50D3FF" p-id="88925"></path><path d="M744.8576 72.2944h51.8144v51.8144h-51.8144z" fill="#50D3FF" p-id="88926"></path><path d="M796.4672 72.2944h51.8144v51.8144h-51.8144z" fill="#50D3FF" p-id="88927"></path><path d="M175.7184 123.904h51.8144v51.8144H175.7184zM227.5328 123.904h51.8144v51.8144h-51.8144z" fill="#42C1F6" p-id="88928"></path><path d="M279.1424 123.904h51.8144v51.8144h-51.8144zM330.9568 123.904h51.8144v51.8144h-51.8144z" fill="#42C1F6" p-id="88929"></path><path d="M382.5664 123.904h51.8144v51.8144h-51.8144zM434.3808 123.904h51.8144v51.8144h-51.8144z" fill="#42C1F6" p-id="88930"></path><path d="M486.1952 123.904h51.8144v51.8144h-51.8144z" fill="#42C1F6" p-id="88931"></path><path d="M537.8048 123.904h51.8144v51.8144h-51.8144z" fill="#42C1F6" p-id="88932"></path><path d="M589.6192 123.904h51.8144v51.8144h-51.8144zM641.4336 123.904h51.8144v51.8144h-51.8144z" fill="#42C1F6" p-id="88933"></path><path d="M693.0432 123.904h51.8144v51.8144h-51.8144z" fill="#42C1F6" p-id="88934"></path><path d="M744.8576 123.904h51.8144v51.8144h-51.8144z" fill="#42C1F6" p-id="88935"></path><path d="M796.4672 123.904h51.8144v51.8144h-51.8144zM796.4672 175.7184h51.8144v51.8144h-51.8144zM796.4672 227.5328h51.8144v51.8144h-51.8144z" fill="#42C1F6" p-id="88936"></path><path d="M796.4672 279.1424h51.8144v51.8144h-51.8144zM796.4672 330.9568h51.8144v51.8144h-51.8144zM175.7184 175.7184h51.8144v51.8144H175.7184zM227.5328 175.7184h51.8144v51.8144h-51.8144z" fill="#42C1F6" p-id="88937"></path><path d="M279.1424 175.7184h51.8144v51.8144h-51.8144zM330.9568 175.7184h51.8144v51.8144h-51.8144z" fill="#42C1F6" p-id="88938"></path><path d="M382.5664 175.7184h51.8144v51.8144h-51.8144zM434.3808 175.7184h51.8144v51.8144h-51.8144z" fill="#42C1F6" p-id="88939"></path><path d="M486.1952 175.7184h51.8144v51.8144h-51.8144z" fill="#42C1F6" p-id="88940"></path><path d="M537.8048 175.7184h51.8144v51.8144h-51.8144z" fill="#42C1F6" p-id="88941"></path><path d="M589.6192 175.7184h51.8144v51.8144h-51.8144zM641.4336 175.7184h51.8144v51.8144h-51.8144z" fill="#42C1F6" p-id="88942"></path><path d="M693.0432 175.7184h51.8144v51.8144h-51.8144z" fill="#42C1F6" p-id="88943"></path><path d="M744.8576 175.7184h51.8144v51.8144h-51.8144zM175.7184 227.5328h51.8144v51.8144H175.7184zM227.5328 227.5328h51.8144v51.8144h-51.8144z" fill="#42C1F6" p-id="88944"></path><path d="M279.1424 227.5328h51.8144v51.8144h-51.8144zM330.9568 227.5328h51.8144v51.8144h-51.8144z" fill="#42C1F6" p-id="88945"></path><path d="M382.5664 227.5328h51.8144v51.8144h-51.8144z" fill="#FFFFFF" p-id="88946"></path><path d="M382.5664 279.1424h51.8144v51.8144h-51.8144zM434.3808 227.5328h51.8144v51.8144h-51.8144z" fill="#FFFFFF" p-id="88947"></path><path d="M486.1952 227.5328h51.8144v51.8144h-51.8144z" fill="#FFFFFF" p-id="88948"></path><path d="M537.8048 227.5328h51.8144v51.8144h-51.8144z" fill="#FFFFFF" p-id="88949"></path><path d="M589.6192 227.5328h51.8144v51.8144h-51.8144z" fill="#FFFFFF" p-id="88950"></path><path d="M641.4336 227.5328h51.8144v51.8144h-51.8144z" fill="#42C1F6" p-id="88951"></path><path d="M693.0432 227.5328h51.8144v51.8144h-51.8144z" fill="#42C1F6" p-id="88952"></path><path d="M744.8576 227.5328h51.8144v51.8144h-51.8144zM175.7184 279.1424h51.8144v51.8144H175.7184zM227.5328 279.1424h51.8144v51.8144h-51.8144z" fill="#42C1F6" p-id="88953"></path><path d="M279.1424 279.1424h51.8144v51.8144h-51.8144zM330.9568 279.1424h51.8144v51.8144h-51.8144z" fill="#42C1F6" p-id="88954"></path><path d="M382.5664 279.1424h51.8144v51.8144h-51.8144z" fill="#FFFFFF" p-id="88955"></path><path d="M434.3808 279.1424h51.8144v51.8144h-51.8144z" fill="#42C1F6" p-id="88956"></path><path d="M486.1952 279.1424h51.8144v51.8144h-51.8144z" fill="#42C1F6" p-id="88957"></path><path d="M537.8048 279.1424h51.8144v51.8144h-51.8144z" fill="#42C1F6" p-id="88958"></path><path d="M589.6192 279.1424h51.8144v51.8144h-51.8144z" fill="#42C1F6" p-id="88959"></path><path d="M641.4336 279.1424h51.8144v51.8144h-51.8144z" fill="#FFFFFF" p-id="88960"></path><path d="M693.0432 279.1424h51.8144v51.8144h-51.8144z" fill="#42C1F6" p-id="88961"></path><path d="M744.8576 279.1424h51.8144v51.8144h-51.8144zM175.7184 330.9568h51.8144v51.8144H175.7184zM227.5328 330.9568h51.8144v51.8144h-51.8144z" fill="#42C1F6" p-id="88962"></path><path d="M279.1424 330.9568h51.8144v51.8144h-51.8144zM330.9568 330.9568h51.8144v51.8144h-51.8144z" fill="#42C1F6" p-id="88963"></path><path d="M382.5664 330.9568h51.8144v51.8144h-51.8144z" fill="#FFFFFF" p-id="88964"></path><path d="M434.3808 330.9568h51.8144v51.8144h-51.8144z" fill="#42C1F6" p-id="88965"></path><path d="M486.1952 330.9568h51.8144v51.8144h-51.8144z" fill="#42C1F6" p-id="88966"></path><path d="M537.8048 330.9568h51.8144v51.8144h-51.8144z" fill="#42C1F6" p-id="88967"></path><path d="M589.6192 330.9568h51.8144v51.8144h-51.8144z" fill="#42C1F6" p-id="88968"></path><path d="M641.4336 330.9568h51.8144v51.8144h-51.8144z" fill="#FFFFFF" p-id="88969"></path><path d="M693.0432 330.9568h51.8144v51.8144h-51.8144z" fill="#42C1F6" p-id="88970"></path><path d="M744.8576 330.9568h51.8144v51.8144h-51.8144z" fill="#42C1F6" p-id="88971"></path><path d="M175.7184 382.5664h51.8144v51.8144H175.7184zM227.5328 382.5664h51.8144v51.8144h-51.8144z" fill="#28B6F4" p-id="88972"></path><path d="M279.1424 382.5664h51.8144v51.8144h-51.8144zM330.9568 382.5664h51.8144v51.8144h-51.8144z" fill="#28B6F4" p-id="88973"></path><path d="M382.5664 382.5664h51.8144v51.8144h-51.8144z" fill="#FFFFFF" p-id="88974"></path><path d="M434.3808 382.5664h51.8144v51.8144h-51.8144z" fill="#28B6F4" p-id="88975"></path><path d="M486.1952 382.5664h51.8144v51.8144h-51.8144z" fill="#28B6F4" p-id="88976"></path><path d="M537.8048 382.5664h51.8144v51.8144h-51.8144z" fill="#28B6F4" p-id="88977"></path><path d="M589.6192 382.5664h51.8144v51.8144h-51.8144z" fill="#28B6F4" p-id="88978"></path><path d="M641.4336 382.5664h51.8144v51.8144h-51.8144z" fill="#FFFFFF" p-id="88979"></path><path d="M693.0432 382.5664h51.8144v51.8144h-51.8144z" fill="#28B6F4" p-id="88980"></path><path d="M744.8576 382.5664h51.8144v51.8144h-51.8144z" fill="#28B6F4" p-id="88981"></path><path d="M796.4672 382.5664h51.8144v51.8144h-51.8144zM796.4672 434.3808h51.8144v51.8144h-51.8144z" fill="#28B6F4" p-id="88982"></path><path d="M796.4672 486.1952h51.8144v51.8144h-51.8144z" fill="#28B6F4" p-id="88983"></path><path d="M796.4672 537.8048h51.8144v51.8144h-51.8144z" fill="#28B6F4" p-id="88984"></path><path d="M796.4672 589.6192h51.8144v51.8144h-51.8144zM796.4672 641.4336h51.8144v51.8144h-51.8144z" fill="#28B6F4" p-id="88985"></path><path d="M796.4672 693.0432h51.8144v51.8144h-51.8144z" fill="#28B6F4" p-id="88986"></path><path d="M744.8576 693.0432h51.8144v51.8144h-51.8144z" fill="#28B6F4" p-id="88987"></path><path d="M693.0432 693.0432h51.8144v51.8144h-51.8144z" fill="#28B6F4" p-id="88988"></path><path d="M641.4336 693.0432h51.8144v51.8144h-51.8144zM589.6192 693.0432h51.8144v51.8144h-51.8144z" fill="#28B6F4" p-id="88989"></path><path d="M537.8048 693.0432h51.8144v51.8144h-51.8144z" fill="#28B6F4" p-id="88990"></path><path d="M486.1952 693.0432h51.8144v51.8144h-51.8144z" fill="#28B6F4" p-id="88991"></path><path d="M434.3808 693.0432h51.8144v51.8144h-51.8144zM382.5664 693.0432h51.8144v51.8144h-51.8144z" fill="#28B6F4" p-id="88992"></path><path d="M330.9568 693.0432h51.8144v51.8144h-51.8144zM279.1424 693.0432h51.8144v51.8144h-51.8144z" fill="#28B6F4" p-id="88993"></path><path d="M227.5328 693.0432h51.8144v51.8144h-51.8144zM175.7184 693.0432h51.8144v51.8144H175.7184zM175.7184 434.3808h51.8144v51.8144H175.7184zM227.5328 434.3808h51.8144v51.8144h-51.8144z" fill="#28B6F4" p-id="88994"></path><path d="M279.1424 434.3808h51.8144v51.8144h-51.8144zM330.9568 434.3808h51.8144v51.8144h-51.8144z" fill="#28B6F4" p-id="88995"></path><path d="M382.5664 434.3808h51.8144v51.8144h-51.8144z" fill="#FFFFFF" p-id="88996"></path><path d="M434.3808 434.3808h51.8144v51.8144h-51.8144z" fill="#28B6F4" p-id="88997"></path><path d="M486.1952 434.3808h51.8144v51.8144h-51.8144z" fill="#28B6F4" p-id="88998"></path><path d="M537.8048 434.3808h51.8144v51.8144h-51.8144z" fill="#28B6F4" p-id="88999"></path><path d="M589.6192 434.3808h51.8144v51.8144h-51.8144z" fill="#28B6F4" p-id="89000"></path><path d="M641.4336 434.3808h51.8144v51.8144h-51.8144z" fill="#FFFFFF" p-id="89001"></path><path d="M693.0432 434.3808h51.8144v51.8144h-51.8144z" fill="#28B6F4" p-id="89002"></path><path d="M744.8576 434.3808h51.8144v51.8144h-51.8144zM175.7184 486.1952h51.8144v51.8144H175.7184zM227.5328 486.1952h51.8144v51.8144h-51.8144z" fill="#28B6F4" p-id="89003"></path><path d="M279.1424 486.1952h51.8144v51.8144h-51.8144zM330.9568 486.1952h51.8144v51.8144h-51.8144z" fill="#28B6F4" p-id="89004"></path><path d="M382.5664 486.1952h51.8144v51.8144h-51.8144zM434.3808 486.1952h51.8144v51.8144h-51.8144z" fill="#FFFFFF" p-id="89005"></path><path d="M486.1952 486.1952h51.8144v51.8144h-51.8144z" fill="#FFFFFF" p-id="89006"></path><path d="M537.8048 486.1952h51.8144v51.8144h-51.8144z" fill="#FFFFFF" p-id="89007"></path><path d="M589.6192 486.1952h51.8144v51.8144h-51.8144z" fill="#FFFFFF" p-id="89008"></path><path d="M641.4336 486.1952h51.8144v51.8144h-51.8144z" fill="#28B6F4" p-id="89009"></path><path d="M693.0432 486.1952h51.8144v51.8144h-51.8144z" fill="#28B6F4" p-id="89010"></path><path d="M744.8576 486.1952h51.8144v51.8144h-51.8144zM175.7184 537.8048h51.8144v51.8144H175.7184zM227.5328 537.8048h51.8144v51.8144h-51.8144z" fill="#28B6F4" p-id="89011"></path><path d="M279.1424 537.8048h51.8144v51.8144h-51.8144zM330.9568 537.8048h51.8144v51.8144h-51.8144z" fill="#28B6F4" p-id="89012"></path><path d="M382.5664 537.8048h51.8144v51.8144h-51.8144z" fill="#FFFFFF" p-id="89013"></path><path d="M434.3808 537.8048h51.8144v51.8144h-51.8144z" fill="#28B6F4" p-id="89014"></path><path d="M486.1952 537.8048h51.8144v51.8144h-51.8144z" fill="#28B6F4" p-id="89015"></path><path d="M537.8048 537.8048h51.8144v51.8144h-51.8144z" fill="#28B6F4" p-id="89016"></path><path d="M589.6192 537.8048h51.8144v51.8144h-51.8144zM641.4336 537.8048h51.8144v51.8144h-51.8144z" fill="#28B6F4" p-id="89017"></path><path d="M693.0432 537.8048h51.8144v51.8144h-51.8144z" fill="#28B6F4" p-id="89018"></path><path d="M744.8576 537.8048h51.8144v51.8144h-51.8144zM175.7184 589.6192h51.8144v51.8144H175.7184zM227.5328 589.6192h51.8144v51.8144h-51.8144z" fill="#28B6F4" p-id="89019"></path><path d="M279.1424 589.6192h51.8144v51.8144h-51.8144zM330.9568 589.6192h51.8144v51.8144h-51.8144z" fill="#28B6F4" p-id="89020"></path><path d="M382.5664 589.6192h51.8144v51.8144h-51.8144z" fill="#FFFFFF" p-id="89021"></path><path d="M434.3808 589.6192h51.8144v51.8144h-51.8144z" fill="#28B6F4" p-id="89022"></path><path d="M486.1952 589.6192h51.8144v51.8144h-51.8144z" fill="#28B6F4" p-id="89023"></path><path d="M537.8048 589.6192h51.8144v51.8144h-51.8144z" fill="#28B6F4" p-id="89024"></path><path d="M589.6192 589.6192h51.8144v51.8144h-51.8144zM641.4336 589.6192h51.8144v51.8144h-51.8144z" fill="#28B6F4" p-id="89025"></path><path d="M693.0432 589.6192h51.8144v51.8144h-51.8144z" fill="#28B6F4" p-id="89026"></path><path d="M744.8576 589.6192h51.8144v51.8144h-51.8144zM175.7184 641.4336h51.8144v51.8144H175.7184zM227.5328 641.4336h51.8144v51.8144h-51.8144z" fill="#28B6F4" p-id="89027"></path><path d="M279.1424 641.4336h51.8144v51.8144h-51.8144zM330.9568 641.4336h51.8144v51.8144h-51.8144z" fill="#28B6F4" p-id="89028"></path><path d="M382.5664 641.4336h51.8144v51.8144h-51.8144z" fill="#FFFFFF" p-id="89029"></path><path d="M434.3808 641.4336h51.8144v51.8144h-51.8144z" fill="#28B6F4" p-id="89030"></path><path d="M486.1952 641.4336h51.8144v51.8144h-51.8144z" fill="#28B6F4" p-id="89031"></path><path d="M537.8048 641.4336h51.8144v51.8144h-51.8144z" fill="#28B6F4" p-id="89032"></path><path d="M589.6192 641.4336h51.8144v51.8144h-51.8144zM641.4336 641.4336h51.8144v51.8144h-51.8144z" fill="#28B6F4" p-id="89033"></path><path d="M693.0432 641.4336h51.8144v51.8144h-51.8144z" fill="#28B6F4" p-id="89034"></path><path d="M744.8576 641.4336h51.8144v51.8144h-51.8144z" fill="#28B6F4" p-id="89035"></path><path d="M175.7184 744.8576h51.8144v51.8144H175.7184zM227.5328 744.8576h51.8144v51.8144h-51.8144z" fill="#553A49" p-id="89036"></path><path d="M279.1424 744.8576h51.8144v51.8144h-51.8144zM330.9568 744.8576h51.8144v51.8144h-51.8144z" fill="#553A49" p-id="89037"></path><path d="M382.5664 744.8576h51.8144v51.8144h-51.8144zM434.3808 744.8576h51.8144v51.8144h-51.8144z" fill="#553A49" p-id="89038"></path><path d="M434.3808 796.4672h51.8144v51.8144h-51.8144zM434.3808 848.2816h51.8144v51.8144h-51.8144zM434.3808 900.096h51.8144v51.8144h-51.8144z" fill="#553A49" p-id="89039"></path><path d="M434.3808 951.7056h51.8144V1003.52h-51.8144zM382.5664 951.7056h51.8144V1003.52h-51.8144z" fill="#553A49" p-id="89040"></path><path d="M330.9568 951.7056h51.8144V1003.52h-51.8144zM486.1952 951.7056h51.8144V1003.52h-51.8144z" fill="#553A49" p-id="89041"></path><path d="M537.8048 951.7056h51.8144V1003.52h-51.8144z" fill="#553A49" p-id="89042"></path><path d="M589.6192 951.7056h51.8144V1003.52h-51.8144zM641.4336 951.7056h51.8144V1003.52h-51.8144zM486.1952 744.8576h51.8144v51.8144h-51.8144z" fill="#553A49" p-id="89043"></path><path d="M486.1952 796.4672h51.8144v51.8144h-51.8144z" fill="#94BDCF" p-id="89044"></path><path d="M486.1952 848.2816h51.8144v51.8144h-51.8144zM486.1952 900.096h51.8144v51.8144h-51.8144z" fill="#ACD9EC" p-id="89045"></path><path d="M537.8048 744.8576h51.8144v51.8144h-51.8144z" fill="#553A49" p-id="89046"></path><path d="M537.8048 796.4672h51.8144v51.8144h-51.8144zM537.8048 848.2816h51.8144v51.8144h-51.8144zM537.8048 900.096h51.8144v51.8144h-51.8144z" fill="#553A49" p-id="89047"></path><path d="M589.6192 744.8576h51.8144v51.8144h-51.8144zM641.4336 744.8576h51.8144v51.8144h-51.8144z" fill="#553A49" p-id="89048"></path><path d="M693.0432 744.8576h51.8144v51.8144h-51.8144z" fill="#553A49" p-id="89049"></path><path d="M744.8576 744.8576h51.8144v51.8144h-51.8144z" fill="#553A49" p-id="89050"></path><path d="M796.4672 744.8576h51.8144v51.8144h-51.8144zM848.2816 72.2944h51.8144v51.8144h-51.8144z" fill="#553A49" p-id="89051"></path><path d="M848.2816 123.904h51.8144v51.8144h-51.8144zM848.2816 175.7184h51.8144v51.8144h-51.8144zM848.2816 227.5328h51.8144v51.8144h-51.8144z" fill="#553A49" p-id="89052"></path><path d="M848.2816 279.1424h51.8144v51.8144h-51.8144zM848.2816 330.9568h51.8144v51.8144h-51.8144z" fill="#553A49" p-id="89053"></path><path d="M848.2816 382.5664h51.8144v51.8144h-51.8144zM848.2816 434.3808h51.8144v51.8144h-51.8144z" fill="#553A49" p-id="89054"></path><path d="M848.2816 486.1952h51.8144v51.8144h-51.8144z" fill="#553A49" p-id="89055"></path><path d="M848.2816 537.8048h51.8144v51.8144h-51.8144z" fill="#553A49" p-id="89056"></path><path d="M848.2816 589.6192h51.8144v51.8144h-51.8144zM848.2816 641.4336h51.8144v51.8144h-51.8144z" fill="#553A49" p-id="89057"></path><path d="M848.2816 693.0432h51.8144v51.8144h-51.8144zM123.904 72.2944h51.8144v51.8144H123.904z" fill="#553A49" p-id="89058"></path><path d="M123.904 123.904h51.8144v51.8144H123.904zM123.904 175.7184h51.8144v51.8144H123.904zM123.904 227.5328h51.8144v51.8144H123.904z" fill="#553A49" p-id="89059"></path><path d="M123.904 279.1424h51.8144v51.8144H123.904zM123.904 330.9568h51.8144v51.8144H123.904z" fill="#553A49" p-id="89060"></path><path d="M123.904 382.5664h51.8144v51.8144H123.904zM123.904 434.3808h51.8144v51.8144H123.904z" fill="#553A49" p-id="89061"></path><path d="M123.904 486.1952h51.8144v51.8144H123.904z" fill="#553A49" p-id="89062"></path><path d="M123.904 537.8048h51.8144v51.8144H123.904z" fill="#553A49" p-id="89063"></path><path d="M123.904 589.6192h51.8144v51.8144H123.904zM123.904 641.4336h51.8144v51.8144H123.904z" fill="#553A49" p-id="89064"></path><path d="M123.904 693.0432h51.8144v51.8144H123.904z" fill="#553A49" p-id="89065"></path></svg>