<?xml version="1.0" standalone="no"?><!DOCTYPE svg PUBLIC "-//W3C//DTD SVG 1.1//EN" "http://www.w3.org/Graphics/SVG/1.1/DTD/svg11.dtd"><svg t="1715586993855" class="icon" viewBox="0 0 1024 1024" version="1.1" xmlns="http://www.w3.org/2000/svg" p-id="83264" width="81" height="81" xmlns:xlink="http://www.w3.org/1999/xlink"><path d="M327.68 20.48h61.44v61.44h-61.44zM266.24 81.92h61.44v61.44h-61.44zM204.8 81.92h61.44v61.44h-61.44zM143.36 143.36h61.44v61.44H143.36zM81.92 204.8h61.44v61.44H81.92zM81.92 266.24h61.44v61.44H81.92zM266.24 880.64h61.44v61.44h-61.44zM204.8 880.64h61.44v61.44h-61.44zM143.36 819.2h61.44v61.44H143.36zM81.92 757.76h61.44v61.44H81.92zM81.92 696.32h61.44v61.44H81.92zM20.48 327.68h61.44v61.44H20.48zM20.48 389.12h61.44v61.44H20.48zM20.48 450.56h61.44v61.44H20.48zM20.48 512h61.44v61.44H20.48zM20.48 573.44h61.44v61.44H20.48zM20.48 634.88h61.44v61.44H20.48zM757.76 143.36h-61.44V81.92h61.44zM819.2 143.36h-61.44V81.92h61.44zM880.64 204.8h-61.44V143.36h61.44zM942.08 266.24h-61.44v-61.44h61.44zM942.08 327.68h-61.44v-61.44h61.44zM757.76 942.08h-61.44v-61.44h61.44zM819.2 942.08h-61.44v-61.44h61.44zM880.64 880.64h-61.44v-61.44h61.44zM942.08 819.2h-61.44v-61.44h61.44zM942.08 757.76h-61.44v-61.44h61.44zM1003.52 389.12h-61.44v-61.44h61.44zM1003.52 450.56h-61.44v-61.44h61.44zM1003.52 512h-61.44v-61.44h61.44zM1003.52 573.44h-61.44v-61.44h61.44zM1003.52 634.88h-61.44v-61.44h61.44zM1003.52 696.32h-61.44v-61.44h61.44zM389.12 20.48h61.44v61.44h-61.44zM450.56 20.48h61.44v61.44h-61.44zM512 20.48h61.44v61.44h-61.44zM573.44 20.48h61.44v61.44h-61.44zM634.88 20.48h61.44v61.44h-61.44z" fill="#553A49" p-id="83265"></path><path d="M327.68 81.92h61.44v61.44h-61.44zM389.12 81.92h61.44v61.44h-61.44zM204.8 143.36h61.44v61.44h-61.44zM819.2 204.8h61.44v61.44h-61.44zM143.36 204.8h61.44v61.44H143.36zM266.24 143.36h61.44v61.44h-61.44z" fill="#AAA7FE" p-id="83266"></path><path d="M327.68 143.36h61.44v61.44h-61.44zM389.12 143.36h61.44v61.44h-61.44zM450.56 143.36h61.44v61.44h-61.44z" fill="#8F8CFE" p-id="83267"></path><path d="M512 143.36h61.44v61.44h-61.44z" fill="#553A49" p-id="83268"></path><path d="M573.44 143.36h61.44v61.44h-61.44zM634.88 143.36h61.44v61.44h-61.44zM634.88 204.8h61.44v61.44h-61.44zM696.32 204.8h61.44v61.44h-61.44zM757.76 204.8h61.44v61.44h-61.44zM757.76 266.24h61.44v61.44h-61.44zM819.2 266.24h61.44v61.44h-61.44zM819.2 327.68h61.44v61.44h-61.44zM880.64 327.68h61.44v61.44h-61.44zM880.64 389.12h61.44v61.44h-61.44zM880.64 450.56h61.44v61.44h-61.44zM819.2 450.56h61.44v61.44h-61.44z" fill="#8F8CFE" p-id="83269"></path><path d="M819.2 389.12h61.44v61.44h-61.44zM757.76 389.12h61.44v61.44h-61.44zM696.32 389.12h61.44v61.44h-61.44zM634.88 389.12h61.44v61.44h-61.44zM573.44 389.12h61.44v61.44h-61.44zM512 389.12h61.44v61.44h-61.44z" fill="#FF502F" p-id="83270"></path><path d="M450.56 389.12h61.44v61.44h-61.44zM389.12 389.12h61.44v61.44h-61.44zM327.68 389.12h61.44v61.44h-61.44zM266.24 389.12h61.44v61.44h-61.44zM204.8 389.12h61.44v61.44h-61.44zM143.36 389.12h61.44v61.44H143.36zM81.92 389.12h61.44v61.44H81.92zM81.92 450.56h61.44v61.44H81.92z" fill="#8F8CFE" p-id="83271"></path><path d="M81.92 512h61.44v61.44H81.92zM81.92 573.44h61.44v61.44H81.92zM81.92 634.88h61.44v61.44H81.92zM143.36 634.88h61.44v61.44H143.36zM143.36 696.32h61.44v61.44H143.36zM143.36 757.76h61.44v61.44H143.36zM204.8 757.76h61.44v61.44h-61.44zM204.8 819.2h61.44v61.44h-61.44zM266.24 819.2h61.44v61.44h-61.44zM327.68 819.2h61.44v61.44h-61.44zM389.12 819.2h61.44v61.44h-61.44z" fill="#7B78FB" p-id="83272"></path><path d="M450.56 819.2h61.44v61.44h-61.44z" fill="#553A49" p-id="83273"></path><path d="M512 819.2h61.44v61.44h-61.44zM573.44 819.2h61.44v61.44h-61.44zM573.44 757.76h61.44v61.44h-61.44zM634.88 757.76h61.44v61.44h-61.44zM696.32 757.76h61.44v61.44h-61.44zM696.32 696.32h61.44v61.44h-61.44zM757.76 696.32h61.44v61.44h-61.44zM757.76 634.88h61.44v61.44h-61.44zM696.32 634.88h61.44v61.44h-61.44zM634.88 634.88h61.44v61.44h-61.44zM634.88 696.32h61.44v61.44h-61.44zM573.44 696.32h61.44v61.44h-61.44zM573.44 634.88h61.44v61.44h-61.44zM512 634.88h61.44v61.44h-61.44zM512 696.32h61.44v61.44h-61.44zM512 757.76h61.44v61.44h-61.44zM450.56 757.76h61.44v61.44h-61.44zM389.12 757.76h61.44v61.44h-61.44zM327.68 757.76h61.44v61.44h-61.44zM266.24 757.76h61.44v61.44h-61.44zM266.24 696.32h61.44v61.44h-61.44zM204.8 696.32h61.44v61.44h-61.44zM204.8 634.88h61.44v61.44h-61.44zM266.24 634.88h61.44v61.44h-61.44zM327.68 634.88h61.44v61.44h-61.44zM389.12 634.88h61.44v61.44h-61.44zM450.56 634.88h61.44v61.44h-61.44zM450.56 696.32h61.44v61.44h-61.44zM389.12 696.32h61.44v61.44h-61.44zM327.68 696.32h61.44v61.44h-61.44zM327.68 880.64h61.44v61.44h-61.44zM389.12 880.64h61.44v61.44h-61.44zM450.56 880.64h61.44v61.44h-61.44zM512 880.64h61.44v61.44h-61.44zM573.44 880.64h61.44v61.44h-61.44zM634.88 880.64h61.44v61.44h-61.44zM634.88 819.2h61.44v61.44h-61.44zM696.32 819.2h61.44v61.44h-61.44zM757.76 819.2h61.44v61.44h-61.44zM757.76 757.76h61.44v61.44h-61.44zM819.2 757.76h61.44v61.44h-61.44zM819.2 696.32h61.44v61.44h-61.44zM819.2 634.88h61.44v61.44h-61.44zM880.64 634.88h61.44v61.44h-61.44zM880.64 573.44h61.44v61.44h-61.44zM880.64 512h61.44v61.44h-61.44z" fill="#7B78FB" p-id="83274"></path><path d="M819.2 512h61.44v61.44h-61.44z" fill="#553A49" p-id="83275"></path><path d="M757.76 512h61.44v61.44h-61.44zM696.32 512h61.44v61.44h-61.44zM634.88 512h61.44v61.44h-61.44z" fill="#7B78FB" p-id="83276"></path><path d="M573.44 512h61.44v61.44h-61.44z" fill="#FF502F" p-id="83277"></path><path d="M512 512h61.44v61.44h-61.44zM450.56 512h61.44v61.44h-61.44z" fill="#553A49" p-id="83278"></path><path d="M389.12 512h61.44v61.44h-61.44zM327.68 512h61.44v61.44h-61.44zM266.24 512h61.44v61.44h-61.44z" fill="#FFFFFF" p-id="83279"></path><path d="M204.8 512h61.44v61.44h-61.44zM143.36 512h61.44v61.44H143.36z" fill="#7B78FB" p-id="83280"></path><path d="M143.36 573.44h61.44v61.44H143.36zM204.8 573.44h61.44v61.44h-61.44zM266.24 573.44h61.44v61.44h-61.44zM327.68 573.44h61.44v61.44h-61.44zM389.12 573.44h61.44v61.44h-61.44zM450.56 573.44h61.44v61.44h-61.44z" fill="#FFFFFF" p-id="83281"></path><path d="M512 573.44h61.44v61.44h-61.44zM573.44 573.44h61.44v61.44h-61.44zM634.88 573.44h61.44v61.44h-61.44zM696.32 573.44h61.44v61.44h-61.44zM757.76 573.44h61.44v61.44h-61.44zM819.2 573.44h61.44v61.44h-61.44z" fill="#7B78FB" p-id="83282"></path><path d="M143.36 450.56h61.44v61.44H143.36z" fill="#553A49" p-id="83283"></path><path d="M204.8 450.56h61.44v61.44h-61.44zM266.24 450.56h61.44v61.44h-61.44zM327.68 450.56h61.44v61.44h-61.44z" fill="#8F8CFE" p-id="83284"></path><path d="M389.12 450.56h61.44v61.44h-61.44z" fill="#FFFFFF" p-id="83285"></path><path d="M450.56 450.56h61.44v61.44h-61.44zM512 450.56h61.44v61.44h-61.44z" fill="#553A49" p-id="83286"></path><path d="M573.44 450.56h61.44v61.44h-61.44zM634.88 450.56h61.44v61.44h-61.44zM696.32 450.56h61.44v61.44h-61.44z" fill="#FF502F" p-id="83287"></path><path d="M757.76 450.56h61.44v61.44h-61.44zM81.92 327.68h61.44v61.44H81.92zM143.36 327.68h61.44v61.44H143.36zM143.36 266.24h61.44v61.44H143.36zM204.8 266.24h61.44v61.44h-61.44zM204.8 204.8h61.44v61.44h-61.44zM266.24 204.8h61.44v61.44h-61.44zM327.68 204.8h61.44v61.44h-61.44zM389.12 204.8h61.44v61.44h-61.44zM450.56 204.8h61.44v61.44h-61.44zM512 204.8h61.44v61.44h-61.44zM573.44 204.8h61.44v61.44h-61.44zM573.44 266.24h61.44v61.44h-61.44zM634.88 266.24h61.44v61.44h-61.44zM696.32 266.24h61.44v61.44h-61.44zM696.32 327.68h61.44v61.44h-61.44zM634.88 327.68h61.44v61.44h-61.44zM573.44 327.68h61.44v61.44h-61.44zM512 327.68h61.44v61.44h-61.44zM512 266.24h61.44v61.44h-61.44zM450.56 266.24h61.44v61.44h-61.44zM389.12 266.24h61.44v61.44h-61.44zM327.68 266.24h61.44v61.44h-61.44zM266.24 266.24h61.44v61.44h-61.44zM266.24 327.68h61.44v61.44h-61.44zM204.8 327.68h61.44v61.44h-61.44zM327.68 327.68h61.44v61.44h-61.44zM389.12 327.68h61.44v61.44h-61.44zM450.56 327.68h61.44v61.44h-61.44zM757.76 327.68h61.44v61.44h-61.44z" fill="#8F8CFE" p-id="83288"></path><path d="M696.32 143.36h61.44v61.44h-61.44zM757.76 143.36h61.44v61.44h-61.44zM450.56 81.92h61.44v61.44h-61.44zM512 81.92h61.44v61.44h-61.44zM573.44 81.92h61.44v61.44h-61.44zM634.88 81.92h61.44v61.44h-61.44z" fill="#AAA7FE" p-id="83289"></path><path d="M327.68 942.08h61.44v61.44h-61.44zM389.12 942.08h61.44v61.44h-61.44zM450.56 942.08h61.44v61.44h-61.44zM512 942.08h61.44v61.44h-61.44zM573.44 942.08h61.44v61.44h-61.44zM634.88 942.08h61.44v61.44h-61.44z" fill="#553A49" p-id="83290"></path></svg>