<?xml version="1.0" standalone="no"?><!DOCTYPE svg PUBLIC "-//W3C//DTD SVG 1.1//EN" "http://www.w3.org/Graphics/SVG/1.1/DTD/svg11.dtd"><svg t="1715586974733" class="icon" viewBox="0 0 1024 1024" version="1.1" xmlns="http://www.w3.org/2000/svg" p-id="82977" width="81" height="81" xmlns:xlink="http://www.w3.org/1999/xlink"><path d="M450.56 51.2h61.44v61.44h-61.44zM512 51.2h61.44v61.44h-61.44zM450.56 174.08h61.44v61.44h-61.44z" fill="#553A49" p-id="82978"></path><path d="M450.56 235.52h61.44v61.44h-61.44zM512 235.52h61.44v61.44h-61.44z" fill="#C37E30" p-id="82979"></path><path d="M512 112.64h61.44v61.44h-61.44zM573.44 174.08h61.44v61.44h-61.44zM634.88 235.52h61.44v61.44h-61.44zM696.32 296.96h61.44v61.44h-61.44zM757.76 358.4h61.44v61.44h-61.44zM819.2 419.84h61.44v61.44h-61.44zM880.64 481.28h61.44v61.44h-61.44z" fill="#E4F2F2" p-id="82980"></path><path d="M450.56 112.64h61.44v61.44h-61.44zM389.12 174.08h61.44v61.44h-61.44zM327.68 235.52h61.44v61.44h-61.44zM266.24 296.96h61.44v61.44h-61.44zM204.8 358.4h61.44v61.44h-61.44zM143.36 419.84h61.44v61.44H143.36zM81.92 481.28h61.44v61.44H81.92z" fill="#FFFFFF" p-id="82981"></path><path d="M573.44 296.96h61.44v61.44h-61.44zM573.44 358.4h61.44v61.44h-61.44zM634.88 358.4h61.44v61.44h-61.44zM696.32 419.84h61.44v61.44h-61.44zM266.24 419.84h61.44v61.44h-61.44zM143.36 542.72h61.44v61.44H143.36zM204.8 542.72h61.44v61.44h-61.44zM266.24 542.72h61.44v61.44h-61.44zM327.68 542.72h61.44v61.44h-61.44zM143.36 665.6h61.44v61.44H143.36zM204.8 665.6h61.44v61.44h-61.44zM266.24 665.6h61.44v61.44h-61.44z" fill="#C37E30" p-id="82982"></path><path d="M389.12 665.6h61.44v61.44h-61.44zM450.56 665.6h61.44v61.44h-61.44zM512 665.6h61.44v61.44h-61.44zM573.44 665.6h61.44v61.44h-61.44z" fill="#36C0C3" p-id="82983"></path><path d="M696.32 665.6h61.44v61.44h-61.44zM757.76 665.6h61.44v61.44h-61.44zM819.2 665.6h61.44v61.44h-61.44zM819.2 788.48h61.44v61.44h-61.44zM757.76 788.48h61.44v61.44h-61.44zM696.32 788.48h61.44v61.44h-61.44zM266.24 788.48h61.44v61.44h-61.44zM204.8 788.48h61.44v61.44h-61.44zM143.36 788.48h61.44v61.44H143.36zM389.12 542.72h61.44v61.44h-61.44zM450.56 542.72h61.44v61.44h-61.44zM512 542.72h61.44v61.44h-61.44zM573.44 542.72h61.44v61.44h-61.44zM634.88 542.72h61.44v61.44h-61.44zM696.32 542.72h61.44v61.44h-61.44zM757.76 542.72h61.44v61.44h-61.44zM819.2 542.72h61.44v61.44h-61.44z" fill="#C37E30" p-id="82984"></path><path d="M819.2 604.16h61.44v61.44h-61.44zM819.2 727.04h61.44v61.44h-61.44zM819.2 849.92h61.44v61.44h-61.44zM757.76 849.92h61.44v61.44h-61.44zM696.32 849.92h61.44v61.44h-61.44zM634.88 849.92h61.44v61.44h-61.44zM573.44 849.92h61.44v61.44h-61.44zM512 849.92h61.44v61.44h-61.44zM450.56 849.92h61.44v61.44h-61.44zM389.12 849.92h61.44v61.44h-61.44zM327.68 849.92h61.44v61.44h-61.44zM266.24 849.92h61.44v61.44h-61.44zM204.8 849.92h61.44v61.44h-61.44zM143.36 849.92h61.44v61.44H143.36zM757.76 727.04h61.44v61.44h-61.44zM696.32 727.04h61.44v61.44h-61.44z" fill="#DE9C4D" p-id="82985"></path><path d="M573.44 727.04h61.44v61.44h-61.44zM512 727.04h61.44v61.44h-61.44zM450.56 727.04h61.44v61.44h-61.44zM389.12 727.04h61.44v61.44h-61.44z" fill="#92E4EA" p-id="82986"></path><path d="M143.36 727.04h61.44v61.44H143.36zM204.8 727.04h61.44v61.44h-61.44zM266.24 727.04h61.44v61.44h-61.44zM757.76 604.16h61.44v61.44h-61.44zM696.32 604.16h61.44v61.44h-61.44zM143.36 604.16h61.44v61.44H143.36zM204.8 604.16h61.44v61.44h-61.44zM266.24 604.16h61.44v61.44h-61.44zM327.68 419.84h61.44v61.44h-61.44zM389.12 419.84h61.44v61.44h-61.44zM450.56 419.84h61.44v61.44h-61.44zM512 419.84h61.44v61.44h-61.44zM573.44 419.84h61.44v61.44h-61.44zM634.88 419.84h61.44v61.44h-61.44z" fill="#DE9C4D" p-id="82987"></path><path d="M266.24 358.4h61.44v61.44h-61.44zM327.68 358.4h61.44v61.44h-61.44zM389.12 296.96h61.44v61.44h-61.44z" fill="#C37E30" p-id="82988"></path><path d="M512 174.08h61.44v61.44h-61.44zM450.56 296.96h61.44v61.44h-61.44zM512 296.96h61.44v61.44h-61.44zM450.56 358.4h61.44v61.44h-61.44zM389.12 358.4h61.44v61.44h-61.44zM512 358.4h61.44v61.44h-61.44zM573.44 358.4h61.44v61.44h-61.44zM266.24 481.28h61.44v61.44h-61.44zM204.8 481.28h61.44v61.44h-61.44zM327.68 481.28h61.44v61.44h-61.44zM389.12 481.28h61.44v61.44h-61.44zM327.68 604.16h61.44v61.44h-61.44zM389.12 604.16h61.44v61.44h-61.44zM450.56 604.16h61.44v61.44h-61.44zM512 604.16h61.44v61.44h-61.44zM573.44 604.16h61.44v61.44h-61.44zM634.88 665.6h61.44v61.44h-61.44zM634.88 604.16h61.44v61.44h-61.44zM634.88 727.04h61.44v61.44h-61.44zM634.88 788.48h61.44v61.44h-61.44zM573.44 788.48h61.44v61.44h-61.44zM512 788.48h61.44v61.44h-61.44zM450.56 788.48h61.44v61.44h-61.44zM389.12 788.48h61.44v61.44h-61.44zM327.68 788.48h61.44v61.44h-61.44zM327.68 727.04h61.44v61.44h-61.44zM327.68 665.6h61.44v61.44h-61.44zM512 481.28h61.44v61.44h-61.44zM450.56 481.28h61.44v61.44h-61.44zM573.44 481.28h61.44v61.44h-61.44zM634.88 481.28h61.44v61.44h-61.44zM696.32 481.28h61.44v61.44h-61.44zM757.76 481.28h61.44v61.44h-61.44zM573.44 112.64h61.44v61.44h-61.44zM696.32 235.52h61.44v61.44h-61.44zM634.88 174.08h61.44v61.44h-61.44zM757.76 296.96h61.44v61.44h-61.44zM880.64 419.84h61.44v61.44h-61.44zM942.08 481.28h61.44v61.44h-61.44zM942.08 542.72h61.44v61.44h-61.44zM880.64 542.72h61.44v61.44h-61.44zM880.64 604.16h61.44v61.44h-61.44zM880.64 665.6h61.44v61.44h-61.44zM880.64 727.04h61.44v61.44h-61.44zM880.64 788.48h61.44v61.44h-61.44zM880.64 849.92h61.44v61.44h-61.44zM880.64 911.36h61.44v61.44h-61.44zM942.08 911.36h61.44v61.44h-61.44zM81.92 604.16h61.44v61.44H81.92zM81.92 665.6h61.44v61.44H81.92zM81.92 727.04h61.44v61.44H81.92zM81.92 788.48h61.44v61.44H81.92zM81.92 849.92h61.44v61.44H81.92zM81.92 911.36h61.44v61.44H81.92zM20.48 911.36h61.44v61.44H20.48zM143.36 911.36h61.44v61.44H143.36zM204.8 911.36h61.44v61.44h-61.44zM266.24 911.36h61.44v61.44h-61.44zM327.68 911.36h61.44v61.44h-61.44zM389.12 911.36h61.44v61.44h-61.44zM450.56 911.36h61.44v61.44h-61.44zM512 911.36h61.44v61.44h-61.44zM573.44 911.36h61.44v61.44h-61.44zM634.88 911.36h61.44v61.44h-61.44zM696.32 911.36h61.44v61.44h-61.44zM757.76 911.36h61.44v61.44h-61.44zM819.2 911.36h61.44v61.44h-61.44zM819.2 358.4h61.44v61.44h-61.44zM573.44 235.52h61.44v61.44h-61.44zM696.32 358.4h61.44v61.44h-61.44zM634.88 296.96h61.44v61.44h-61.44zM757.76 419.84h61.44v61.44h-61.44zM819.2 481.28h61.44v61.44h-61.44zM450.56 296.96h-61.44v-61.44h61.44zM327.68 419.84h-61.44v-61.44h61.44zM389.12 358.4h-61.44v-61.44h61.44zM266.24 481.28h-61.44v-61.44h61.44zM204.8 542.72H143.36v-61.44h61.44zM450.56 174.08h-61.44v-61.44h61.44zM327.68 296.96h-61.44v-61.44h61.44zM389.12 235.52h-61.44v-61.44h61.44zM266.24 358.4h-61.44v-61.44h61.44zM143.36 481.28H81.92v-61.44h61.44zM81.92 542.72H20.48v-61.44h61.44zM81.92 604.16H20.48v-61.44h61.44zM143.36 604.16H81.92v-61.44h61.44zM204.8 419.84H143.36v-61.44h61.44z" fill="#553A49" p-id="82989"></path></svg>