<?xml version="1.0" standalone="no"?><!DOCTYPE svg PUBLIC "-//W3C//DTD SVG 1.1//EN" "http://www.w3.org/Graphics/SVG/1.1/DTD/svg11.dtd"><svg t="1715587043727" class="icon" viewBox="0 0 1024 1024" version="1.1" xmlns="http://www.w3.org/2000/svg" p-id="87663" width="81" height="81" xmlns:xlink="http://www.w3.org/1999/xlink"><path d="M80.896 15.36h65.536v65.536h-65.536zM146.432 15.36h65.536v65.536h-65.536z" fill="#553A49" p-id="87664"></path><path d="M211.968 15.36h65.536v65.536h-65.536zM277.504 15.36h65.536v65.536h-65.536zM343.04 15.36h65.536v65.536h-65.536zM408.576 15.36h65.536v65.536h-65.536zM474.112 15.36h65.536v65.536h-65.536zM539.648 15.36h65.536v65.536h-65.536zM605.184 15.36h65.536v65.536h-65.536zM670.72 15.36h65.536v65.536h-65.536zM736.256 15.36h65.536v65.536h-65.536z" fill="#553A49" p-id="87665"></path><path d="M801.792 15.36h65.536v65.536h-65.536zM867.328 15.36h65.536v65.536h-65.536z" fill="#553A49" p-id="87666"></path><path d="M80.896 80.896h65.536v65.536h-65.536zM146.432 80.896h65.536v65.536h-65.536z" fill="#FFFFFF" p-id="87667"></path><path d="M211.968 80.896h65.536v65.536h-65.536zM277.504 80.896h65.536v65.536h-65.536zM343.04 80.896h65.536v65.536h-65.536zM408.576 80.896h65.536v65.536h-65.536zM474.112 80.896h65.536v65.536h-65.536zM539.648 80.896h65.536v65.536h-65.536zM605.184 80.896h65.536v65.536h-65.536zM670.72 80.896h65.536v65.536h-65.536zM736.256 80.896h65.536v65.536h-65.536z" fill="#FFFFFF" p-id="87668"></path><path d="M801.792 80.896h65.536v65.536h-65.536zM867.328 80.896h65.536v65.536h-65.536z" fill="#FFFFFF" p-id="87669"></path><path d="M80.896 146.432h65.536v65.536h-65.536zM146.432 146.432h65.536v65.536h-65.536z" fill="#E3F1F1" p-id="87670"></path><path d="M211.968 146.432h65.536v65.536h-65.536zM277.504 146.432h65.536v65.536h-65.536z" fill="#E3F1F1" p-id="87671"></path><path d="M343.04 146.432h65.536v65.536h-65.536zM408.576 211.968h65.536v65.536h-65.536z" fill="#553A49" p-id="87672"></path><path d="M343.04 211.968h65.536v65.536h-65.536zM277.504 211.968h65.536v65.536h-65.536zM211.968 211.968h65.536v65.536h-65.536z" fill="#553A49" p-id="87673"></path><path d="M146.432 211.968h65.536v65.536h-65.536zM80.896 211.968h65.536v65.536h-65.536zM474.112 211.968h65.536v65.536h-65.536zM539.648 211.968h65.536v65.536h-65.536zM605.184 211.968h65.536v65.536h-65.536zM670.72 211.968h65.536v65.536h-65.536zM736.256 211.968h65.536v65.536h-65.536z" fill="#553A49" p-id="87674"></path><path d="M801.792 211.968h65.536v65.536h-65.536zM867.328 211.968h65.536v65.536h-65.536z" fill="#553A49" p-id="87675"></path><path d="M932.864 211.968h65.536v65.536h-65.536zM932.864 277.504h65.536v65.536h-65.536zM932.864 343.04h65.536v65.536h-65.536zM932.864 408.576h65.536v65.536h-65.536zM932.864 474.112h65.536v65.536h-65.536zM932.864 539.648h65.536v65.536h-65.536zM932.864 605.184h65.536v65.536h-65.536zM932.864 670.72h65.536v65.536h-65.536zM932.864 736.256h65.536v65.536h-65.536z" fill="#553A49" p-id="87676"></path><path d="M932.864 801.792h65.536v65.536h-65.536zM932.864 867.328h65.536v65.536h-65.536z" fill="#553A49" p-id="87677"></path><path d="M932.864 932.864h65.536v65.536h-65.536zM408.576 277.504h65.536v65.536h-65.536z" fill="#553A49" p-id="87678"></path><path d="M474.112 277.504h65.536v65.536h-65.536zM343.04 277.504h65.536v65.536h-65.536zM80.896 408.576h65.536v65.536h-65.536z" fill="#F9EF4F" p-id="87679"></path><path d="M80.896 343.04h65.536v65.536h-65.536zM80.896 277.504h65.536v65.536h-65.536zM146.432 277.504h65.536v65.536h-65.536z" fill="#4CAED5" p-id="87680"></path><path d="M211.968 277.504h65.536v65.536h-65.536zM277.504 277.504h65.536v65.536h-65.536zM277.504 343.04h65.536v65.536h-65.536zM736.256 277.504h65.536v65.536h-65.536z" fill="#4CAED5" p-id="87681"></path><path d="M801.792 277.504h65.536v65.536h-65.536zM867.328 277.504h65.536v65.536h-65.536zM867.328 343.04h65.536v65.536h-65.536zM867.328 408.576h65.536v65.536h-65.536zM867.328 474.112h65.536v65.536h-65.536zM801.792 474.112h65.536v65.536h-65.536zM801.792 408.576h65.536v65.536h-65.536zM801.792 343.04h65.536v65.536h-65.536z" fill="#4CAED5" p-id="87682"></path><path d="M736.256 343.04h65.536v65.536h-65.536zM670.72 343.04h65.536v65.536h-65.536zM605.184 343.04h65.536v65.536h-65.536zM605.184 408.576h65.536v65.536h-65.536zM670.72 408.576h65.536v65.536h-65.536zM736.256 408.576h65.536v65.536h-65.536zM736.256 474.112h65.536v65.536h-65.536zM736.256 539.648h65.536v65.536h-65.536zM736.256 605.184h65.536v65.536h-65.536zM670.72 605.184h65.536v65.536h-65.536zM605.184 605.184h65.536v65.536h-65.536zM605.184 670.72h65.536v65.536h-65.536zM605.184 736.256h65.536v65.536h-65.536z" fill="#4CAED5" p-id="87683"></path><path d="M605.184 801.792h65.536v65.536h-65.536zM605.184 867.328h65.536v65.536h-65.536zM670.72 867.328h65.536v65.536h-65.536zM736.256 867.328h65.536v65.536h-65.536zM736.256 801.792h65.536v65.536h-65.536zM670.72 801.792h65.536v65.536h-65.536zM605.184 539.648h65.536v65.536h-65.536zM670.72 539.648h65.536v65.536h-65.536zM670.72 474.112h65.536v65.536h-65.536zM605.184 474.112h65.536v65.536h-65.536zM539.648 474.112h65.536v65.536h-65.536zM474.112 474.112h65.536v65.536h-65.536zM474.112 539.648h65.536v65.536h-65.536zM539.648 539.648h65.536v65.536h-65.536zM343.04 343.04h65.536v65.536h-65.536zM343.04 408.576h65.536v65.536h-65.536zM343.04 474.112h65.536v65.536h-65.536zM277.504 474.112h65.536v65.536h-65.536zM211.968 474.112h65.536v65.536h-65.536zM211.968 408.576h65.536v65.536h-65.536zM277.504 408.576h65.536v65.536h-65.536zM343.04 539.648h65.536v65.536h-65.536zM343.04 605.184h65.536v65.536h-65.536zM343.04 670.72h65.536v65.536h-65.536zM343.04 736.256h65.536v65.536h-65.536z" fill="#4CAED5" p-id="87684"></path><path d="M343.04 801.792h65.536v65.536h-65.536zM343.04 867.328h65.536v65.536h-65.536zM277.504 867.328h65.536v65.536h-65.536zM211.968 867.328h65.536v65.536h-65.536z" fill="#4CAED5" p-id="87685"></path><path d="M146.432 867.328h65.536v65.536h-65.536zM80.896 867.328h65.536v65.536h-65.536zM80.896 801.792h65.536v65.536h-65.536zM146.432 801.792h65.536v65.536h-65.536z" fill="#4CAED5" p-id="87686"></path><path d="M211.968 801.792h65.536v65.536h-65.536zM277.504 801.792h65.536v65.536h-65.536z" fill="#4CAED5" p-id="87687"></path><path d="M277.504 736.256h65.536v65.536h-65.536zM277.504 670.72h65.536v65.536h-65.536zM211.968 670.72h65.536v65.536h-65.536zM211.968 736.256h65.536v65.536h-65.536zM211.968 343.04h65.536v65.536h-65.536z" fill="#4CAED5" p-id="87688"></path><path d="M146.432 343.04h65.536v65.536h-65.536z" fill="#4CAED5" p-id="87689"></path><path d="M146.432 408.576h65.536v65.536h-65.536zM146.432 474.112h65.536v65.536h-65.536zM146.432 539.648h65.536v65.536h-65.536z" fill="#F9EF4F" p-id="87690"></path><path d="M211.968 539.648h65.536v65.536h-65.536zM277.504 539.648h65.536v65.536h-65.536zM277.504 605.184h65.536v65.536h-65.536zM211.968 605.184h65.536v65.536h-65.536z" fill="#F9EF4F" p-id="87691"></path><path d="M146.432 605.184h65.536v65.536h-65.536zM146.432 670.72h65.536v65.536h-65.536zM146.432 736.256h65.536v65.536h-65.536zM80.896 736.256h65.536v65.536h-65.536zM80.896 670.72h65.536v65.536h-65.536zM80.896 605.184h65.536v65.536h-65.536zM80.896 539.648h65.536v65.536h-65.536zM80.896 474.112h65.536v65.536h-65.536zM539.648 277.504h65.536v65.536h-65.536zM474.112 343.04h65.536v65.536h-65.536zM539.648 343.04h65.536v65.536h-65.536zM474.112 408.576h65.536v65.536h-65.536zM539.648 408.576h65.536v65.536h-65.536zM867.328 539.648h65.536v65.536h-65.536zM801.792 539.648h65.536v65.536h-65.536zM801.792 605.184h65.536v65.536h-65.536zM867.328 605.184h65.536v65.536h-65.536zM867.328 670.72h65.536v65.536h-65.536zM867.328 736.256h65.536v65.536h-65.536z" fill="#F9EF4F" p-id="87692"></path><path d="M867.328 801.792h65.536v65.536h-65.536zM867.328 867.328h65.536v65.536h-65.536zM801.792 867.328h65.536v65.536h-65.536zM801.792 801.792h65.536v65.536h-65.536z" fill="#F9EF4F" p-id="87693"></path><path d="M801.792 736.256h65.536v65.536h-65.536zM801.792 670.72h65.536v65.536h-65.536z" fill="#F9EF4F" p-id="87694"></path><path d="M736.256 736.256h65.536v65.536h-65.536zM736.256 670.72h65.536v65.536h-65.536zM670.72 670.72h65.536v65.536h-65.536zM670.72 736.256h65.536v65.536h-65.536zM605.184 277.504h65.536v65.536h-65.536zM670.72 277.504h65.536v65.536h-65.536z" fill="#F9EF4F" p-id="87695"></path><path d="M408.576 343.04h65.536v65.536h-65.536zM408.576 408.576h65.536v65.536h-65.536zM408.576 474.112h65.536v65.536h-65.536zM408.576 539.648h65.536v65.536h-65.536zM408.576 605.184h65.536v65.536h-65.536zM408.576 670.72h65.536v65.536h-65.536zM408.576 736.256h65.536v65.536h-65.536z" fill="#553A49" p-id="87696"></path><path d="M408.576 801.792h65.536v65.536h-65.536zM408.576 867.328h65.536v65.536h-65.536z" fill="#553A49" p-id="87697"></path><path d="M408.576 932.864h65.536v65.536h-65.536zM343.04 932.864h65.536v65.536h-65.536zM277.504 932.864h65.536v65.536h-65.536zM211.968 932.864h65.536v65.536h-65.536z" fill="#553A49" p-id="87698"></path><path d="M146.432 932.864h65.536v65.536h-65.536zM80.896 932.864h65.536v65.536h-65.536zM15.36 932.864h65.536v65.536H15.36z" fill="#553A49" p-id="87699"></path><path d="M15.36 867.328h65.536v65.536H15.36zM15.36 801.792h65.536v65.536H15.36z" fill="#553A49" p-id="87700"></path><path d="M15.36 736.256h65.536v65.536H15.36zM15.36 670.72h65.536v65.536H15.36zM15.36 605.184h65.536v65.536H15.36zM15.36 539.648h65.536v65.536H15.36zM15.36 474.112h65.536v65.536H15.36zM15.36 408.576h65.536v65.536H15.36zM15.36 343.04h65.536v65.536H15.36zM15.36 277.504h65.536v65.536H15.36zM15.36 211.968h65.536v65.536H15.36z" fill="#553A49" p-id="87701"></path><path d="M15.36 146.432h65.536v65.536H15.36zM15.36 80.896h65.536v65.536H15.36zM474.112 605.184h65.536v65.536h-65.536zM539.648 605.184h65.536v65.536h-65.536zM539.648 670.72h65.536v65.536h-65.536zM539.648 736.256h65.536v65.536h-65.536z" fill="#553A49" p-id="87702"></path><path d="M539.648 801.792h65.536v65.536h-65.536zM539.648 867.328h65.536v65.536h-65.536z" fill="#553A49" p-id="87703"></path><path d="M539.648 932.864h65.536v65.536h-65.536zM605.184 932.864h65.536v65.536h-65.536zM670.72 932.864h65.536v65.536h-65.536zM736.256 932.864h65.536v65.536h-65.536z" fill="#553A49" p-id="87704"></path><path d="M801.792 932.864h65.536v65.536h-65.536zM867.328 932.864h65.536v65.536h-65.536z" fill="#553A49" p-id="87705"></path><path d="M408.576 146.432h65.536v65.536h-65.536zM474.112 146.432h65.536v65.536h-65.536zM539.648 146.432h65.536v65.536h-65.536z" fill="#E3F1F1" p-id="87706"></path><path d="M605.184 146.432h65.536v65.536h-65.536z" fill="#553A49" p-id="87707"></path><path d="M670.72 146.432h65.536v65.536h-65.536zM736.256 146.432h65.536v65.536h-65.536z" fill="#E3F1F1" p-id="87708"></path><path d="M801.792 146.432h65.536v65.536h-65.536zM867.328 146.432h65.536v65.536h-65.536z" fill="#E3F1F1" p-id="87709"></path><path d="M932.864 146.432h65.536v65.536h-65.536zM932.864 80.896h65.536v65.536h-65.536z" fill="#553A49" p-id="87710"></path></svg>