<?xml version="1.0" standalone="no"?><!DOCTYPE svg PUBLIC "-//W3C//DTD SVG 1.1//EN" "http://www.w3.org/Graphics/SVG/1.1/DTD/svg11.dtd"><svg t="1715587040907" class="icon" viewBox="0 0 1024 1024" version="1.1" xmlns="http://www.w3.org/2000/svg" p-id="87373" width="81" height="81" xmlns:xlink="http://www.w3.org/1999/xlink"><path d="M81.92 389.12H20.48v-61.44h61.44zM143.36 327.68H81.92v-61.44h61.44zM143.36 757.76H81.92v-61.44h61.44zM143.36 819.2H81.92v-61.44h61.44zM204.8 880.64H143.36v-61.44h61.44zM266.24 942.08h-61.44v-61.44h61.44zM327.68 942.08h-61.44v-61.44h61.44zM143.36 266.24H81.92v-61.44h61.44zM204.8 204.8H143.36V143.36h61.44zM266.24 143.36h-61.44V81.92h61.44zM327.68 143.36h-61.44V81.92h61.44z" fill="#553A49" p-id="87374"></path><path d="M143.36 389.12H81.92v-61.44h61.44zM204.8 389.12H143.36v-61.44h61.44zM389.12 143.36h-61.44V81.92h61.44zM450.56 143.36h-61.44V81.92h61.44zM512 143.36h-61.44V81.92h61.44zM573.44 143.36h-61.44V81.92h61.44zM634.88 143.36h-61.44V81.92h61.44zM696.32 143.36h-61.44V81.92h61.44z" fill="#FB6749" p-id="87375"></path><path d="M389.12 81.92h-61.44V20.48h61.44zM450.56 81.92h-61.44V20.48h61.44zM512 81.92h-61.44V20.48h61.44zM573.44 81.92h-61.44V20.48h61.44zM634.88 81.92h-61.44V20.48h61.44zM696.32 81.92h-61.44V20.48h61.44z" fill="#553A49" p-id="87376"></path><path d="M389.12 204.8h-61.44V143.36h61.44zM450.56 204.8h-61.44V143.36h61.44zM450.56 266.24h-61.44v-61.44h61.44zM512 266.24h-61.44v-61.44h61.44zM573.44 266.24h-61.44v-61.44h61.44zM634.88 266.24h-61.44v-61.44h61.44z" fill="#F9483E" p-id="87377"></path><path d="M450.56 327.68h-61.44v-61.44h61.44zM512 327.68h-61.44v-61.44h61.44zM573.44 327.68h-61.44v-61.44h61.44zM634.88 327.68h-61.44v-61.44h61.44z" fill="#553A49" p-id="87378"></path><path d="M512 204.8h-61.44V143.36h61.44zM573.44 204.8h-61.44V143.36h61.44zM634.88 204.8h-61.44V143.36h61.44zM696.32 204.8h-61.44V143.36h61.44z" fill="#F9483E" p-id="87379"></path><path d="M266.24 389.12h-61.44v-61.44h61.44zM327.68 389.12h-61.44v-61.44h61.44zM327.68 327.68h-61.44v-61.44h61.44zM266.24 696.32h-61.44v-61.44h61.44zM266.24 757.76h-61.44v-61.44h61.44zM327.68 757.76h-61.44v-61.44h61.44zM327.68 819.2h-61.44v-61.44h61.44zM389.12 819.2h-61.44v-61.44h61.44zM327.68 880.64h-61.44v-61.44h61.44zM204.8 757.76H143.36v-61.44h61.44zM204.8 819.2H143.36v-61.44h61.44zM266.24 819.2h-61.44v-61.44h61.44zM266.24 880.64h-61.44v-61.44h61.44zM389.12 327.68h-61.44v-61.44h61.44zM389.12 266.24h-61.44v-61.44h61.44zM327.68 266.24h-61.44v-61.44h61.44zM266.24 266.24h-61.44v-61.44h61.44zM266.24 327.68h-61.44v-61.44h61.44zM204.8 327.68H143.36v-61.44h61.44z" fill="#E5F1F1" p-id="87380"></path><path d="M204.8 266.24H143.36v-61.44h61.44zM266.24 204.8h-61.44V143.36h61.44zM327.68 696.32h-61.44v-61.44h61.44zM389.12 757.76h-61.44v-61.44h61.44zM327.68 204.8h-61.44V143.36h61.44z" fill="#FFFFFF" p-id="87381"></path><path d="M389.12 389.12h-61.44v-61.44h61.44z" fill="#553A49" p-id="87382"></path><path d="M143.36 450.56H81.92v-61.44h61.44zM204.8 450.56H143.36v-61.44h61.44zM266.24 450.56h-61.44v-61.44h61.44zM143.36 512H81.92v-61.44h61.44zM204.8 512H143.36v-61.44h61.44zM266.24 512h-61.44v-61.44h61.44z" fill="#FB6749" p-id="87383"></path><path d="M143.36 573.44H81.92v-61.44h61.44zM204.8 573.44H143.36v-61.44h61.44zM266.24 573.44h-61.44v-61.44h61.44zM143.36 634.88H81.92v-61.44h61.44zM204.8 634.88H143.36v-61.44h61.44zM143.36 696.32H81.92v-61.44h61.44zM204.8 696.32H143.36v-61.44h61.44zM266.24 634.88h-61.44v-61.44h61.44zM389.12 880.64h-61.44v-61.44h61.44zM389.12 942.08h-61.44v-61.44h61.44zM450.56 942.08h-61.44v-61.44h61.44zM512 942.08h-61.44v-61.44h61.44zM573.44 942.08h-61.44v-61.44h61.44zM634.88 942.08h-61.44v-61.44h61.44zM696.32 942.08h-61.44v-61.44h61.44z" fill="#F9483E" p-id="87384"></path><path d="M389.12 1003.52h-61.44v-61.44h61.44zM450.56 1003.52h-61.44v-61.44h61.44zM512 1003.52h-61.44v-61.44h61.44zM573.44 1003.52h-61.44v-61.44h61.44zM634.88 1003.52h-61.44v-61.44h61.44zM696.32 1003.52h-61.44v-61.44h61.44z" fill="#553A49" p-id="87385"></path><path d="M696.32 880.64h-61.44v-61.44h61.44zM634.88 880.64h-61.44v-61.44h61.44zM573.44 880.64h-61.44v-61.44h61.44zM512 880.64h-61.44v-61.44h61.44zM450.56 880.64h-61.44v-61.44h61.44zM450.56 819.2h-61.44v-61.44h61.44zM512 819.2h-61.44v-61.44h61.44zM573.44 819.2h-61.44v-61.44h61.44zM634.88 819.2h-61.44v-61.44h61.44z" fill="#F9483E" p-id="87386"></path><path d="M450.56 757.76h-61.44v-61.44h61.44zM512 757.76h-61.44v-61.44h61.44zM573.44 757.76h-61.44v-61.44h61.44zM634.88 757.76h-61.44v-61.44h61.44zM327.68 450.56h-61.44v-61.44h61.44zM327.68 512h-61.44v-61.44h61.44zM327.68 573.44h-61.44v-61.44h61.44zM327.68 634.88h-61.44v-61.44h61.44zM389.12 696.32h-61.44v-61.44h61.44zM81.92 450.56H20.48v-61.44h61.44zM81.92 512H20.48v-61.44h61.44zM81.92 573.44H20.48v-61.44h61.44zM81.92 634.88H20.48v-61.44h61.44zM81.92 696.32H20.48v-61.44h61.44zM942.08 327.68h61.44v61.44h-61.44zM880.64 266.24h61.44v61.44h-61.44zM880.64 696.32h61.44v61.44h-61.44zM880.64 757.76h61.44v61.44h-61.44zM819.2 819.2h61.44v61.44h-61.44zM757.76 880.64h61.44v61.44h-61.44zM696.32 880.64h61.44v61.44h-61.44zM880.64 204.8h61.44v61.44h-61.44zM819.2 143.36h61.44v61.44h-61.44zM757.76 81.92h61.44v61.44h-61.44zM696.32 81.92h61.44v61.44h-61.44z" fill="#553A49" p-id="87387"></path><path d="M880.64 327.68h61.44v61.44h-61.44zM819.2 327.68h61.44v61.44h-61.44z" fill="#FB6749" p-id="87388"></path><path d="M757.76 327.68h61.44v61.44h-61.44zM696.32 327.68h61.44v61.44h-61.44zM696.32 266.24h61.44v61.44h-61.44zM757.76 634.88h61.44v61.44h-61.44zM757.76 696.32h61.44v61.44h-61.44zM696.32 696.32h61.44v61.44h-61.44zM696.32 757.76h61.44v61.44h-61.44zM634.88 757.76h61.44v61.44h-61.44zM696.32 819.2h61.44v61.44h-61.44zM819.2 696.32h61.44v61.44h-61.44zM819.2 757.76h61.44v61.44h-61.44zM757.76 757.76h61.44v61.44h-61.44zM757.76 819.2h61.44v61.44h-61.44zM634.88 266.24h61.44v61.44h-61.44zM634.88 204.8h61.44v61.44h-61.44zM696.32 204.8h61.44v61.44h-61.44zM757.76 204.8h61.44v61.44h-61.44zM757.76 266.24h61.44v61.44h-61.44zM819.2 266.24h61.44v61.44h-61.44z" fill="#E5F1F1" p-id="87389"></path><path d="M819.2 204.8h61.44v61.44h-61.44zM757.76 143.36h61.44v61.44h-61.44zM696.32 634.88h61.44v61.44h-61.44zM634.88 696.32h61.44v61.44h-61.44zM696.32 143.36h61.44v61.44h-61.44z" fill="#FFFFFF" p-id="87390"></path><path d="M634.88 327.68h61.44v61.44h-61.44z" fill="#553A49" p-id="87391"></path><path d="M880.64 389.12h61.44v61.44h-61.44zM819.2 389.12h61.44v61.44h-61.44zM757.76 389.12h61.44v61.44h-61.44zM880.64 450.56h61.44v61.44h-61.44zM819.2 450.56h61.44v61.44h-61.44zM757.76 450.56h61.44v61.44h-61.44z" fill="#FB6749" p-id="87392"></path><path d="M880.64 512h61.44v61.44h-61.44zM819.2 512h61.44v61.44h-61.44zM757.76 512h61.44v61.44h-61.44zM880.64 573.44h61.44v61.44h-61.44zM819.2 573.44h61.44v61.44h-61.44zM880.64 634.88h61.44v61.44h-61.44zM819.2 634.88h61.44v61.44h-61.44zM757.76 573.44h61.44v61.44h-61.44z" fill="#F9483E" p-id="87393"></path><path d="M696.32 389.12h61.44v61.44h-61.44zM696.32 450.56h61.44v61.44h-61.44zM696.32 512h61.44v61.44h-61.44zM696.32 573.44h61.44v61.44h-61.44zM634.88 634.88h61.44v61.44h-61.44zM942.08 389.12h61.44v61.44h-61.44zM942.08 450.56h61.44v61.44h-61.44zM942.08 512h61.44v61.44h-61.44zM942.08 573.44h61.44v61.44h-61.44zM942.08 634.88h61.44v61.44h-61.44z" fill="#553A49" p-id="87394"></path></svg>