<?xml version="1.0" standalone="no"?><!DOCTYPE svg PUBLIC "-//W3C//DTD SVG 1.1//EN" "http://www.w3.org/Graphics/SVG/1.1/DTD/svg11.dtd"><svg t="1715587052266" class="icon" viewBox="0 0 1024 1024" version="1.1" xmlns="http://www.w3.org/2000/svg" p-id="88629" width="81" height="81" xmlns:xlink="http://www.w3.org/1999/xlink"><path d="M266.24 235.52h61.44v61.44h-61.44zM327.68 235.52h61.44v61.44h-61.44zM327.68 296.96h61.44v61.44h-61.44zM327.68 358.4h61.44v61.44h-61.44zM389.12 358.4h61.44v61.44h-61.44zM450.56 358.4h61.44v61.44h-61.44zM512 358.4h61.44v61.44h-61.44zM573.44 358.4h61.44v61.44h-61.44zM634.88 358.4h61.44v61.44h-61.44zM696.32 358.4h61.44v61.44h-61.44zM696.32 419.84h61.44v61.44h-61.44zM757.76 419.84h61.44v61.44h-61.44z" fill="#553A49" p-id="88630"></path><path d="M757.76 481.28h61.44v61.44h-61.44zM819.2 481.28h61.44v61.44h-61.44zM819.2 542.72h61.44v61.44h-61.44zM880.64 542.72h61.44v61.44h-61.44zM880.64 604.16h61.44v61.44h-61.44zM880.64 665.6h61.44v61.44h-61.44zM819.2 665.6h61.44v61.44h-61.44zM819.2 727.04h61.44v61.44h-61.44zM757.76 727.04h61.44v61.44h-61.44zM696.32 727.04h61.44v61.44h-61.44zM696.32 665.6h61.44v61.44h-61.44zM634.88 665.6h61.44v61.44h-61.44zM634.88 604.16h61.44v61.44h-61.44zM266.24 727.04h61.44v61.44h-61.44zM204.8 727.04h61.44v61.44h-61.44zM143.36 727.04h61.44v61.44H143.36zM143.36 665.6h61.44v61.44H143.36zM81.92 665.6h61.44v61.44H81.92zM81.92 604.16h61.44v61.44H81.92zM143.36 604.16h61.44v61.44H143.36zM143.36 542.72h61.44v61.44H143.36zM143.36 481.28h61.44v61.44H143.36zM204.8 481.28h61.44v61.44h-61.44zM81.92 542.72h61.44v61.44H81.92zM819.2 604.16h61.44v61.44h-61.44zM757.76 542.72h61.44v61.44h-61.44z" fill="#E7F0F5" p-id="88631"></path><path d="M819.2 419.84h61.44v61.44h-61.44zM880.64 481.28h61.44v61.44h-61.44zM942.08 542.72h61.44v61.44h-61.44zM942.08 604.16h61.44v61.44h-61.44zM942.08 665.6h61.44v61.44h-61.44zM819.2 788.48h61.44v61.44h-61.44zM757.76 788.48h61.44v61.44h-61.44zM696.32 788.48h61.44v61.44h-61.44zM634.88 727.04h61.44v61.44h-61.44zM573.44 665.6h61.44v61.44h-61.44zM573.44 604.16h61.44v61.44h-61.44zM512 604.16h61.44v61.44h-61.44zM450.56 604.16h61.44v61.44h-61.44zM573.44 542.72h61.44v61.44h-61.44zM634.88 481.28h61.44v61.44h-61.44z" fill="#553A49" p-id="88632"></path><path d="M634.88 542.72h61.44v61.44h-61.44zM757.76 665.6h61.44v61.44h-61.44zM696.32 604.16h61.44v61.44h-61.44zM266.24 542.72h61.44v61.44h-61.44zM204.8 665.6h61.44v61.44h-61.44zM266.24 665.6h61.44v61.44h-61.44zM327.68 665.6h61.44v61.44h-61.44zM327.68 542.72h61.44v61.44h-61.44z" fill="#CAD3D5" p-id="88633"></path><path d="M880.64 727.04h61.44v61.44h-61.44zM204.8 419.84h61.44v61.44h-61.44zM143.36 419.84h61.44v61.44H143.36zM266.24 419.84h61.44v61.44h-61.44zM266.24 481.28h61.44v61.44h-61.44zM327.68 481.28h61.44v61.44h-61.44zM389.12 542.72h61.44v61.44h-61.44zM389.12 604.16h61.44v61.44h-61.44zM327.68 604.16h61.44v61.44h-61.44zM266.24 604.16h61.44v61.44h-61.44zM204.8 542.72h61.44v61.44h-61.44zM204.8 604.16h61.44v61.44h-61.44zM389.12 665.6h61.44v61.44h-61.44zM266.24 788.48h61.44v61.44h-61.44zM204.8 788.48h61.44v61.44h-61.44zM143.36 788.48h61.44v61.44H143.36zM81.92 727.04h61.44v61.44H81.92zM20.48 665.6h61.44v61.44H20.48zM20.48 604.16h61.44v61.44H20.48zM20.48 542.72h61.44v61.44H20.48zM81.92 481.28h61.44v61.44H81.92zM327.68 727.04h61.44v61.44h-61.44zM696.32 481.28h61.44v61.44h-61.44zM696.32 542.72h61.44v61.44h-61.44zM757.76 604.16h61.44v61.44h-61.44zM696.32 296.96h61.44v61.44h-61.44zM696.32 235.52h61.44v61.44h-61.44zM634.88 174.08h61.44v61.44h-61.44zM573.44 174.08h61.44v61.44h-61.44zM389.12 235.52h61.44v61.44h-61.44z" fill="#553A49" p-id="88634"></path></svg>