<?xml version="1.0" standalone="no"?><!DOCTYPE svg PUBLIC "-//W3C//DTD SVG 1.1//EN" "http://www.w3.org/Graphics/SVG/1.1/DTD/svg11.dtd"><svg t="1715587049411" class="icon" viewBox="0 0 1024 1024" version="1.1" xmlns="http://www.w3.org/2000/svg" p-id="88255" width="81" height="81" xmlns:xlink="http://www.w3.org/1999/xlink"><path d="M184.32 184.32h54.6816v54.6816H184.32zM239.0016 184.32h54.6816v54.6816h-54.6816z" fill="#553A49" p-id="88256"></path><path d="M293.4784 184.32H348.16v54.6816h-54.6816zM348.16 184.32h54.6816v54.6816H348.16zM348.16 129.6384h54.6816V184.32H348.16z" fill="#553A49" p-id="88257"></path><path d="M402.8416 129.6384h54.6816V184.32h-54.6816z" fill="#F2FD34" p-id="88258"></path><path d="M457.3184 129.6384H512V184.32h-54.6816zM512 129.6384h54.6816V184.32H512zM566.6816 129.6384h54.6816V184.32h-54.6816z" fill="#F2FD34" p-id="88259"></path><path d="M402.8416 75.1616h54.6816v54.6816h-54.6816z" fill="#553A49" p-id="88260"></path><path d="M457.3184 75.1616H512v54.6816h-54.6816zM512 75.1616h54.6816v54.6816H512zM566.6816 75.1616h54.6816v54.6816h-54.6816zM402.8416 184.32h54.6816v54.6816h-54.6816z" fill="#553A49" p-id="88261"></path><path d="M457.3184 184.32H512v54.6816h-54.6816zM512 184.32h54.6816v54.6816H512zM457.3184 239.0016H512v54.6816h-54.6816zM512 239.0016h54.6816v54.6816H512z" fill="#553A49" p-id="88262"></path><path d="M566.6816 239.0016h54.6816v54.6816h-54.6816z" fill="#00C3C9" p-id="88263"></path><path d="M621.1584 239.0016H675.84v54.6816h-54.6816zM675.84 239.0016h54.6816v54.6816H675.84zM730.5216 239.0016h54.6816v54.6816h-54.6816z" fill="#00C3C9" p-id="88264"></path><path d="M784.9984 239.0016H839.68v54.6816h-54.6816z" fill="#00C3C9" p-id="88265"></path><path d="M784.9984 293.4784H839.68V348.16h-54.6816zM784.9984 348.16H839.68v54.6816h-54.6816zM784.9984 402.8416H839.68v54.6816h-54.6816z" fill="#00C3C9" p-id="88266"></path><path d="M730.5216 402.8416h54.6816v54.6816h-54.6816zM675.84 402.8416h54.6816v54.6816H675.84zM621.1584 402.8416H675.84v54.6816h-54.6816z" fill="#00C3C9" p-id="88267"></path><path d="M566.6816 402.8416h54.6816v54.6816h-54.6816z" fill="#00C3C9" p-id="88268"></path><path d="M512 402.8416h54.6816v54.6816H512zM457.3184 402.8416H512v54.6816h-54.6816zM512 348.16h54.6816v54.6816H512zM457.3184 348.16H512v54.6816h-54.6816z" fill="#00E3EA" p-id="88269"></path><path d="M457.3184 348.16H512v54.6816h-54.6816z" fill="#00E3EA" p-id="88270"></path><path d="M402.8416 348.16h54.6816v54.6816h-54.6816z" fill="#00E3EA" p-id="88271"></path><path d="M402.8416 348.16h54.6816v54.6816h-54.6816zM348.16 348.16h54.6816v54.6816H348.16zM293.4784 348.16H348.16v54.6816h-54.6816z" fill="#00E3EA" p-id="88272"></path><path d="M239.0016 348.16h54.6816v54.6816h-54.6816zM239.0016 293.4784h54.6816V348.16h-54.6816z" fill="#00E3EA" p-id="88273"></path><path d="M293.4784 293.4784H348.16V348.16h-54.6816zM348.16 293.4784h54.6816V348.16H348.16zM402.8416 293.4784h54.6816V348.16h-54.6816z" fill="#00E3EA" p-id="88274"></path><path d="M457.3184 293.4784H512V348.16h-54.6816zM512 293.4784h54.6816V348.16H512zM566.6816 293.4784h54.6816V348.16h-54.6816z" fill="#00E3EA" p-id="88275"></path><path d="M621.1584 293.4784H675.84V348.16h-54.6816zM675.84 293.4784h54.6816V348.16H675.84zM730.5216 293.4784h54.6816V348.16h-54.6816zM730.5216 348.16h54.6816v54.6816h-54.6816zM675.84 348.16h54.6816v54.6816H675.84zM621.1584 348.16H675.84v54.6816h-54.6816z" fill="#00E3EA" p-id="88276"></path><path d="M566.6816 348.16h54.6816v54.6816h-54.6816z" fill="#00E3EA" p-id="88277"></path><path d="M402.8416 402.8416h54.6816v54.6816h-54.6816zM348.16 402.8416h54.6816v54.6816H348.16zM293.4784 402.8416H348.16v54.6816h-54.6816z" fill="#00C3C9" p-id="88278"></path><path d="M239.0016 402.8416h54.6816v54.6816h-54.6816zM184.32 402.8416h54.6816v54.6816H184.32zM184.32 348.16h54.6816v54.6816H184.32zM184.32 293.4784h54.6816V348.16H184.32z" fill="#00C3C9" p-id="88279"></path><path d="M184.32 239.0016h54.6816v54.6816H184.32zM239.0016 239.0016h54.6816v54.6816h-54.6816z" fill="#00C3C9" p-id="88280"></path><path d="M293.4784 239.0016H348.16v54.6816h-54.6816zM348.16 239.0016h54.6816v54.6816H348.16zM402.8416 239.0016h54.6816v54.6816h-54.6816z" fill="#00C3C9" p-id="88281"></path><path d="M566.6816 184.32h54.6816v54.6816h-54.6816z" fill="#553A49" p-id="88282"></path><path d="M621.1584 184.32H675.84v54.6816h-54.6816zM621.1584 129.6384H675.84V184.32h-54.6816zM675.84 184.32h54.6816v54.6816H675.84zM730.5216 184.32h54.6816v54.6816h-54.6816z" fill="#553A49" p-id="88283"></path><path d="M784.9984 184.32H839.68v54.6816h-54.6816zM839.68 239.0016h54.6816v54.6816H839.68z" fill="#553A49" p-id="88284"></path><path d="M839.68 293.4784h54.6816V348.16H839.68zM839.68 348.16h54.6816v54.6816H839.68zM839.68 402.8416h54.6816v54.6816H839.68z" fill="#553A49" p-id="88285"></path><path d="M839.68 457.3184h54.6816V512H839.68zM894.3616 457.3184h54.6816V512h-54.6816z" fill="#553A49" p-id="88286"></path><path d="M948.8384 402.8416H1003.52v54.6816h-54.6816zM948.8384 348.16H1003.52v54.6816h-54.6816zM894.3616 512h54.6816v54.6816h-54.6816zM948.8384 566.6816H1003.52v54.6816h-54.6816z" fill="#553A49" p-id="88287"></path><path d="M948.8384 621.1584H1003.52V675.84h-54.6816zM948.8384 675.84H1003.52v54.6816h-54.6816zM948.8384 730.5216H1003.52v54.6816h-54.6816z" fill="#553A49" p-id="88288"></path><path d="M948.8384 784.9984H1003.52V839.68h-54.6816z" fill="#553A49" p-id="88289"></path><path d="M894.3616 784.9984h54.6816V839.68h-54.6816zM894.3616 839.68h54.6816v54.6816h-54.6816zM894.3616 894.3616h54.6816v54.6816h-54.6816zM839.68 894.3616h54.6816v54.6816H839.68zM839.68 839.68h54.6816v54.6816H839.68zM839.68 784.9984h54.6816V839.68H839.68zM184.38144 293.4784h-54.6816v-54.6816h54.6816zM184.38144 348.22144h-54.6816v-54.6816h54.6816z" fill="#553A49" p-id="88290"></path><path d="M184.38144 402.78016h-54.6816v-54.6816h54.6816z" fill="#553A49" p-id="88291"></path><path d="M184.38144 457.3184h-54.6816v-54.6816h54.6816zM184.38144 512.06144h-54.6816v-54.6816h54.6816z" fill="#553A49" p-id="88292"></path><path d="M238.94016 512.06144h-54.6816v-54.6816h54.6816z" fill="#553A49" p-id="88293"></path><path d="M293.4784 512.06144h-54.6816v-54.6816h54.6816zM348.22144 512.06144h-54.6816v-54.6816h54.6816z" fill="#553A49" p-id="88294"></path><path d="M402.78016 512.06144h-54.6816v-54.6816h54.6816z" fill="#553A49" p-id="88295"></path><path d="M457.3184 512.06144h-54.6816v-54.6816h54.6816zM512.06144 512.06144h-54.6816v-54.6816h54.6816z" fill="#553A49" p-id="88296"></path><path d="M566.62016 512.06144h-54.6816v-54.6816h54.6816z" fill="#553A49" p-id="88297"></path><path d="M621.1584 512.06144h-54.6816v-54.6816h54.6816zM675.90144 512.06144h-54.6816v-54.6816h54.6816z" fill="#553A49" p-id="88298"></path><path d="M730.46016 512.06144h-54.6816v-54.6816h54.6816z" fill="#553A49" p-id="88299"></path><path d="M784.9984 512.06144h-54.6816v-54.6816h54.6816zM839.74144 512.06144h-54.6816v-54.6816h54.6816zM129.6384 512.06144H74.9568v-54.6816h54.6816zM75.10016 457.3184H20.41856v-54.6816h54.6816z" fill="#553A49" p-id="88300"></path><path d="M75.10016 402.78016H20.41856v-54.6816h54.6816zM129.6384 566.62016H74.9568v-54.6816h54.6816zM184.38144 621.1584h-54.6816v-54.6816h54.6816zM184.38144 675.90144h-54.6816v-54.6816h54.6816z" fill="#553A49" p-id="88301"></path><path d="M184.38144 730.46016h-54.6816v-54.6816h54.6816z" fill="#553A49" p-id="88302"></path><path d="M238.94016 730.46016h-54.6816v-54.6816h54.6816z" fill="#553A49" p-id="88303"></path><path d="M293.4784 730.46016h-54.6816v-54.6816h54.6816z" fill="#553A49" p-id="88304"></path><path d="M293.4784 675.90144h-54.6816v-54.6816h54.6816zM293.4784 621.1584h-54.6816v-54.6816h54.6816zM402.78016 621.1584h-54.6816v-54.6816h54.6816z" fill="#553A49" p-id="88305"></path><path d="M457.3184 621.1584h-54.6816v-54.6816h54.6816zM512.06144 621.1584h-54.6816v-54.6816h54.6816z" fill="#553A49" p-id="88306"></path><path d="M566.62016 621.1584h-54.6816v-54.6816h54.6816z" fill="#553A49" p-id="88307"></path><path d="M621.1584 621.1584h-54.6816v-54.6816h54.6816zM675.90144 621.1584h-54.6816v-54.6816h54.6816zM402.78016 730.46016h-54.6816v-54.6816h54.6816z" fill="#553A49" p-id="88308"></path><path d="M457.3184 730.46016h-54.6816v-54.6816h54.6816zM512.06144 730.46016h-54.6816v-54.6816h54.6816z" fill="#553A49" p-id="88309"></path><path d="M566.62016 730.46016h-54.6816v-54.6816h54.6816z" fill="#553A49" p-id="88310"></path><path d="M621.1584 730.46016h-54.6816v-54.6816h54.6816zM675.90144 730.46016h-54.6816v-54.6816h54.6816zM238.94016 621.1584h-54.6816v-54.6816h54.6816zM784.9984 621.1584h-54.6816v-54.6816h54.6816zM784.9984 675.90144h-54.6816v-54.6816h54.6816z" fill="#553A49" p-id="88311"></path><path d="M784.9984 730.46016h-54.6816v-54.6816h54.6816zM839.74144 730.46016h-54.6816v-54.6816h54.6816z" fill="#553A49" p-id="88312"></path><path d="M894.30016 730.46016h-54.6816v-54.6816h54.6816z" fill="#553A49" p-id="88313"></path><path d="M894.30016 675.90144h-54.6816v-54.6816h54.6816zM894.30016 621.1584h-54.6816v-54.6816h54.6816z" fill="#553A49" p-id="88314"></path><path d="M839.74144 621.1584h-54.6816v-54.6816h54.6816zM75.10016 621.1584H20.41856v-54.6816h54.6816zM75.10016 675.90144H20.41856v-54.6816h54.6816z" fill="#553A49" p-id="88315"></path><path d="M75.10016 730.46016H20.41856v-54.6816h54.6816z" fill="#553A49" p-id="88316"></path><path d="M129.6384 730.46016H74.9568v-54.6816h54.6816z" fill="#FFBB0E" p-id="88317"></path><path d="M129.6384 784.9984H74.9568v-54.6816h54.6816zM184.38144 784.9984h-54.6816v-54.6816h54.6816z" fill="#FFBB0E" p-id="88318"></path><path d="M238.94016 784.9984h-54.6816v-54.6816h54.6816z" fill="#FFBB0E" p-id="88319"></path><path d="M293.4784 784.9984h-54.6816v-54.6816h54.6816zM348.22144 784.9984h-54.6816v-54.6816h54.6816z" fill="#FFBB0E" p-id="88320"></path><path d="M402.78016 784.9984h-54.6816v-54.6816h54.6816z" fill="#FFBB0E" p-id="88321"></path><path d="M457.3184 784.9984h-54.6816v-54.6816h54.6816zM512.06144 784.9984h-54.6816v-54.6816h54.6816z" fill="#FFBB0E" p-id="88322"></path><path d="M566.62016 784.9984h-54.6816v-54.6816h54.6816z" fill="#FFBB0E" p-id="88323"></path><path d="M621.1584 784.9984h-54.6816v-54.6816h54.6816zM675.90144 784.9984h-54.6816v-54.6816h54.6816z" fill="#FFBB0E" p-id="88324"></path><path d="M730.46016 784.9984h-54.6816v-54.6816h54.6816z" fill="#FFBB0E" p-id="88325"></path><path d="M784.9984 784.9984h-54.6816v-54.6816h54.6816zM839.74144 784.9984h-54.6816v-54.6816h54.6816z" fill="#FFBB0E" p-id="88326"></path><path d="M894.30016 784.9984h-54.6816v-54.6816h54.6816z" fill="#FFBB0E" p-id="88327"></path><path d="M948.8384 784.9984h-54.6816v-54.6816h54.6816z" fill="#FFBB0E" p-id="88328"></path><path d="M948.8384 730.46016h-54.6816v-54.6816h54.6816zM730.46016 730.46016h-54.6816v-54.6816h54.6816zM348.22144 730.46016h-54.6816v-54.6816h54.6816z" fill="#FFBB0E" p-id="88329"></path><path d="M348.22144 675.90144h-54.6816v-54.6816h54.6816z" fill="#F2FD34" p-id="88330"></path><path d="M402.78016 675.90144h-54.6816v-54.6816h54.6816z" fill="#F2FD34" p-id="88331"></path><path d="M457.3184 675.90144h-54.6816v-54.6816h54.6816zM512.06144 675.90144h-54.6816v-54.6816h54.6816z" fill="#F2FD34" p-id="88332"></path><path d="M566.62016 675.90144h-54.6816v-54.6816h54.6816z" fill="#F2FD34" p-id="88333"></path><path d="M621.1584 675.90144h-54.6816v-54.6816h54.6816zM675.90144 675.90144h-54.6816v-54.6816h54.6816z" fill="#F2FD34" p-id="88334"></path><path d="M730.46016 675.90144h-54.6816v-54.6816h54.6816zM948.8384 675.90144h-54.6816v-54.6816h54.6816zM948.8384 621.1584h-54.6816v-54.6816h54.6816z" fill="#F2FD34" p-id="88335"></path><path d="M894.30016 566.62016h-54.6816v-54.6816h54.6816z" fill="#F2FD34" p-id="88336"></path><path d="M839.74144 566.62016h-54.6816v-54.6816h54.6816zM784.9984 566.62016h-54.6816v-54.6816h54.6816z" fill="#F2FD34" p-id="88337"></path><path d="M730.46016 566.62016h-54.6816v-54.6816h54.6816z" fill="#F2FD34" p-id="88338"></path><path d="M730.46016 621.1584h-54.6816v-54.6816h54.6816z" fill="#F2FD34" p-id="88339"></path><path d="M675.90144 566.62016h-54.6816v-54.6816h54.6816zM621.1584 566.62016h-54.6816v-54.6816h54.6816z" fill="#F2FD34" p-id="88340"></path><path d="M566.62016 566.62016h-54.6816v-54.6816h54.6816z" fill="#F2FD34" p-id="88341"></path><path d="M512.06144 566.62016h-54.6816v-54.6816h54.6816zM457.3184 566.62016h-54.6816v-54.6816h54.6816z" fill="#F2FD34" p-id="88342"></path><path d="M402.78016 566.62016h-54.6816v-54.6816h54.6816z" fill="#F2FD34" p-id="88343"></path><path d="M348.22144 566.62016h-54.6816v-54.6816h54.6816z" fill="#F2FD34" p-id="88344"></path><path d="M348.22144 621.1584h-54.6816v-54.6816h54.6816zM293.4784 566.62016h-54.6816v-54.6816h54.6816z" fill="#F2FD34" p-id="88345"></path><path d="M238.94016 566.62016h-54.6816v-54.6816h54.6816z" fill="#F2FD34" p-id="88346"></path><path d="M184.38144 566.62016h-54.6816v-54.6816h54.6816zM129.6384 621.1584H74.9568v-54.6816h54.6816zM129.6384 675.90144H74.9568v-54.6816h54.6816z" fill="#F2FD34" p-id="88347"></path><path d="M75.10016 784.9984H20.41856v-54.6816h54.6816zM75.10016 839.74144H20.41856v-54.6816h54.6816z" fill="#553A49" p-id="88348"></path><path d="M129.6384 839.74144H74.9568v-54.6816h54.6816z" fill="#553A49" p-id="88349"></path><path d="M129.6384 894.30016H74.9568v-54.6816h54.6816z" fill="#553A49" p-id="88350"></path><path d="M129.6384 948.8384H74.9568v-54.6816h54.6816zM184.38144 948.8384h-54.6816v-54.6816h54.6816z" fill="#553A49" p-id="88351"></path><path d="M184.38144 894.30016h-54.6816v-54.6816h54.6816z" fill="#553A49" p-id="88352"></path><path d="M184.38144 839.74144h-54.6816v-54.6816h54.6816z" fill="#553A49" p-id="88353"></path><path d="M238.94016 839.74144h-54.6816v-54.6816h54.6816z" fill="#553A49" p-id="88354"></path><path d="M293.4784 839.74144h-54.6816v-54.6816h54.6816zM348.22144 839.74144h-54.6816v-54.6816h54.6816z" fill="#553A49" p-id="88355"></path><path d="M402.78016 839.74144h-54.6816v-54.6816h54.6816z" fill="#553A49" p-id="88356"></path><path d="M457.3184 839.74144h-54.6816v-54.6816h54.6816zM512.06144 839.74144h-54.6816v-54.6816h54.6816z" fill="#553A49" p-id="88357"></path><path d="M566.62016 839.74144h-54.6816v-54.6816h54.6816z" fill="#553A49" p-id="88358"></path><path d="M621.1584 839.74144h-54.6816v-54.6816h54.6816zM675.90144 839.74144h-54.6816v-54.6816h54.6816zM784.9984 784.9984H839.68V839.68h-54.6816z" fill="#553A49" p-id="88359"></path><path d="M730.5216 784.9984h54.6816V839.68h-54.6816zM675.84 784.9984h54.6816V839.68H675.84z" fill="#553A49" p-id="88360"></path></svg>