<?xml version="1.0" standalone="no"?><!DOCTYPE svg PUBLIC "-//W3C//DTD SVG 1.1//EN" "http://www.w3.org/Graphics/SVG/1.1/DTD/svg11.dtd"><svg t="1715587033331" class="icon" viewBox="0 0 1024 1024" version="1.1" xmlns="http://www.w3.org/2000/svg" p-id="86414" width="81" height="81" xmlns:xlink="http://www.w3.org/1999/xlink"><path d="M75.1616 293.4784h54.6816V348.16H75.1616z" fill="#553A49" p-id="86415"></path><path d="M129.6384 293.4784H184.32V348.16H129.6384z" fill="#553A49" p-id="86416"></path><path d="M129.6384 239.0016H184.32v54.6816H129.6384zM129.6384 184.32H184.32v54.6816H129.6384zM129.6384 129.6384H184.32V184.32H129.6384z" fill="#553A49" p-id="86417"></path><path d="M184.32 129.6384h54.6816V184.32H184.32zM239.0016 129.6384h54.6816V184.32h-54.6816z" fill="#E2F2F1" p-id="86418"></path><path d="M293.4784 129.6384H348.16V184.32h-54.6816zM348.16 129.6384h54.6816V184.32H348.16z" fill="#E2F2F1" p-id="86419"></path><path d="M348.16 184.32h54.6816v54.6816H348.16z" fill="#FFFFFF" p-id="86420"></path><path d="M402.8416 184.32h54.6816v54.6816h-54.6816z" fill="#FF6F3D" p-id="86421"></path><path d="M457.3184 184.32H512v54.6816h-54.6816zM512 184.32h54.6816v54.6816H512z" fill="#FF6F3D" p-id="86422"></path><path d="M566.6816 184.32h54.6816v54.6816h-54.6816zM566.6816 239.0016h54.6816v54.6816h-54.6816z" fill="#50CC53" p-id="86423"></path><path d="M621.1584 239.0016H675.84v54.6816h-54.6816z" fill="#50CC53" p-id="86424"></path><path d="M784.9984 75.1616H839.68v54.6816h-54.6816zM839.68 75.1616h54.6816v54.6816H839.68z" fill="#FFC570" p-id="86425"></path><path d="M839.68 129.6384h54.6816V184.32H839.68zM784.9984 129.6384H839.68V184.32h-54.6816zM784.9984 184.32H839.68v54.6816h-54.6816zM839.68 184.32h54.6816v54.6816H839.68z" fill="#F2AF4E" p-id="86426"></path><path d="M730.5216 184.32h54.6816v54.6816h-54.6816zM730.5216 239.0016h54.6816v54.6816h-54.6816z" fill="#F2AF4E" p-id="86427"></path><path d="M784.9984 239.0016H839.68v54.6816h-54.6816z" fill="#F2AF4E" p-id="86428"></path><path d="M402.8416 239.0016h54.6816v54.6816h-54.6816z" fill="#FF512F" p-id="86429"></path><path d="M457.3184 239.0016H512v54.6816h-54.6816zM512 239.0016h54.6816v54.6816H512z" fill="#FF512F" p-id="86430"></path><path d="M293.4784 184.32H348.16v54.6816h-54.6816z" fill="#FFFFFF" p-id="86431"></path><path d="M239.0016 184.32h54.6816v54.6816h-54.6816zM184.32 184.32h54.6816v54.6816H184.32z" fill="#FFFFFF" p-id="86432"></path><path d="M184.32 239.0016h54.6816v54.6816H184.32zM239.0016 239.0016h54.6816v54.6816h-54.6816z" fill="#29B6F3" p-id="86433"></path><path d="M293.4784 239.0016H348.16v54.6816h-54.6816zM348.16 239.0016h54.6816v54.6816H348.16z" fill="#29B6F3" p-id="86434"></path><path d="M184.32 75.1616h54.6816v54.6816H184.32zM239.0016 75.1616h54.6816v54.6816h-54.6816z" fill="#553A49" p-id="86435"></path><path d="M293.4784 75.1616H348.16v54.6816h-54.6816zM348.16 75.1616h54.6816v54.6816H348.16zM402.8416 129.6384h54.6816V184.32h-54.6816z" fill="#553A49" p-id="86436"></path><path d="M457.3184 129.6384H512V184.32h-54.6816zM512 129.6384h54.6816V184.32H512zM566.6816 129.6384h54.6816V184.32h-54.6816zM621.1584 184.32H675.84v54.6816h-54.6816zM675.84 184.32h54.6816v54.6816H675.84zM675.84 239.0016h54.6816v54.6816H675.84zM730.5216 75.1616h54.6816v54.6816h-54.6816zM784.9984 20.48H839.68v54.6816h-54.6816zM839.68 20.48h54.6816v54.6816H839.68zM894.3616 75.1616h54.6816v54.6816h-54.6816z" fill="#553A49" p-id="86437"></path><path d="M894.3616 129.6384h54.6816V184.32h-54.6816zM894.3616 184.32h54.6816v54.6816h-54.6816zM839.68 239.0016h54.6816v54.6816H839.68zM730.5216 129.6384h54.6816V184.32h-54.6816zM184.32 293.4784h54.6816V348.16H184.32zM239.0016 293.4784h54.6816V348.16h-54.6816z" fill="#553A49" p-id="86438"></path><path d="M293.4784 293.4784H348.16V348.16h-54.6816zM348.16 293.4784h54.6816V348.16H348.16zM348.16 402.8416h54.6816v54.6816H348.16z" fill="#553A49" p-id="86439"></path><path d="M348.16 457.3184h54.6816V512H348.16zM348.16 512h54.6816v54.6816H348.16zM348.16 566.6816h54.6816v54.6816H348.16zM402.8416 566.6816h54.6816v54.6816h-54.6816z" fill="#553A49" p-id="86440"></path><path d="M457.3184 566.6816H512v54.6816h-54.6816zM512 566.6816h54.6816v54.6816H512zM566.6816 566.6816h54.6816v54.6816h-54.6816z" fill="#553A49" p-id="86441"></path><path d="M621.1584 566.6816H675.84v54.6816h-54.6816zM621.1584 512H675.84v54.6816h-54.6816zM621.1584 457.3184H675.84V512h-54.6816z" fill="#553A49" p-id="86442"></path><path d="M621.1584 402.8416H675.84v54.6816h-54.6816zM402.8416 293.4784h54.6816V348.16h-54.6816z" fill="#553A49" p-id="86443"></path><path d="M457.3184 293.4784H512V348.16h-54.6816zM512 293.4784h54.6816V348.16H512zM566.6816 293.4784h54.6816V348.16h-54.6816z" fill="#553A49" p-id="86444"></path><path d="M621.1584 293.4784H675.84V348.16h-54.6816zM675.84 293.4784h54.6816V348.16H675.84zM730.5216 293.4784h54.6816V348.16h-54.6816z" fill="#553A49" p-id="86445"></path><path d="M784.9984 293.4784H839.68V348.16h-54.6816zM839.68 293.4784h54.6816V348.16H839.68zM129.6384 948.8384H184.32V1003.52H129.6384zM184.32 948.8384h54.6816V1003.52H184.32zM239.0016 948.8384h54.6816V1003.52h-54.6816z" fill="#553A49" p-id="86446"></path><path d="M293.4784 948.8384H348.16V1003.52h-54.6816zM348.16 948.8384h54.6816V1003.52H348.16zM402.8416 948.8384h54.6816V1003.52h-54.6816z" fill="#553A49" p-id="86447"></path><path d="M457.3184 948.8384H512V1003.52h-54.6816zM512 948.8384h54.6816V1003.52H512zM566.6816 948.8384h54.6816V1003.52h-54.6816z" fill="#553A49" p-id="86448"></path><path d="M621.1584 948.8384H675.84V1003.52h-54.6816zM675.84 948.8384h54.6816V1003.52H675.84zM730.5216 948.8384h54.6816V1003.52h-54.6816z" fill="#553A49" p-id="86449"></path><path d="M784.9984 948.8384H839.68V1003.52h-54.6816zM839.68 948.8384h54.6816V1003.52H839.68zM894.3616 293.4784h54.6816V348.16h-54.6816zM894.3616 348.16h54.6816v54.6816h-54.6816zM894.3616 402.8416h54.6816v54.6816h-54.6816z" fill="#553A49" p-id="86450"></path><path d="M894.3616 457.3184h54.6816V512h-54.6816zM894.3616 512h54.6816v54.6816h-54.6816zM894.3616 566.6816h54.6816v54.6816h-54.6816z" fill="#553A49" p-id="86451"></path><path d="M894.3616 621.1584h54.6816V675.84h-54.6816zM894.3616 675.84h54.6816v54.6816h-54.6816zM894.3616 730.5216h54.6816v54.6816h-54.6816z" fill="#553A49" p-id="86452"></path><path d="M894.3616 784.9984h54.6816V839.68h-54.6816zM894.3616 839.68h54.6816v54.6816h-54.6816zM894.3616 894.3616h54.6816v54.6816h-54.6816z" fill="#553A49" p-id="86453"></path><path d="M894.3616 948.8384h54.6816V1003.52h-54.6816zM75.1616 348.16h54.6816v54.6816H75.1616z" fill="#553A49" p-id="86454"></path><path d="M129.6384 348.16H184.32v54.6816H129.6384zM184.32 348.16h54.6816v54.6816H184.32zM239.0016 348.16h54.6816v54.6816h-54.6816z" fill="#FEE5AC" p-id="86455"></path><path d="M293.4784 348.16H348.16v54.6816h-54.6816zM348.16 348.16h54.6816v54.6816H348.16zM402.8416 348.16h54.6816v54.6816h-54.6816z" fill="#FEE5AC" p-id="86456"></path><path d="M457.3184 348.16H512v54.6816h-54.6816zM512 348.16h54.6816v54.6816H512zM566.6816 348.16h54.6816v54.6816h-54.6816z" fill="#FEE5AC" p-id="86457"></path><path d="M621.1584 348.16H675.84v54.6816h-54.6816zM675.84 348.16h54.6816v54.6816H675.84zM730.5216 348.16h54.6816v54.6816h-54.6816z" fill="#FEE5AC" p-id="86458"></path><path d="M784.9984 348.16H839.68v54.6816h-54.6816zM839.68 348.16h54.6816v54.6816H839.68z" fill="#FEE5AC" p-id="86459"></path><path d="M839.68 402.8416h54.6816v54.6816H839.68zM784.9984 402.8416H839.68v54.6816h-54.6816z" fill="#FAD48B" p-id="86460"></path><path d="M730.5216 402.8416h54.6816v54.6816h-54.6816zM675.84 402.8416h54.6816v54.6816H675.84zM566.6816 402.8416h54.6816v54.6816h-54.6816zM512 402.8416h54.6816v54.6816H512zM457.3184 402.8416H512v54.6816h-54.6816z" fill="#FAD48B" p-id="86461"></path><path d="M402.8416 402.8416h54.6816v54.6816h-54.6816zM293.4784 402.8416H348.16v54.6816h-54.6816z" fill="#FAD48B" p-id="86462"></path><path d="M239.0016 402.8416h54.6816v54.6816h-54.6816zM184.32 402.8416h54.6816v54.6816H184.32zM129.6384 402.8416H184.32v54.6816H129.6384z" fill="#FAD48B" p-id="86463"></path><path d="M129.6384 457.3184H184.32V512H129.6384zM184.32 457.3184h54.6816V512H184.32zM239.0016 457.3184h54.6816V512h-54.6816z" fill="#FAD48B" p-id="86464"></path><path d="M293.4784 457.3184H348.16V512h-54.6816zM402.8416 457.3184h54.6816V512h-54.6816z" fill="#FAD48B" p-id="86465"></path><path d="M457.3184 457.3184H512V512h-54.6816zM512 457.3184h54.6816V512H512zM566.6816 457.3184h54.6816V512h-54.6816zM675.84 457.3184h54.6816V512H675.84zM730.5216 457.3184h54.6816V512h-54.6816z" fill="#FAD48B" p-id="86466"></path><path d="M784.9984 457.3184H839.68V512h-54.6816zM839.68 457.3184h54.6816V512H839.68zM839.68 512h54.6816v54.6816H839.68zM784.9984 512H839.68v54.6816h-54.6816z" fill="#FAD48B" p-id="86467"></path><path d="M730.5216 512h54.6816v54.6816h-54.6816zM675.84 512h54.6816v54.6816H675.84zM566.6816 512h54.6816v54.6816h-54.6816zM512 512h54.6816v54.6816H512zM457.3184 512H512v54.6816h-54.6816z" fill="#FAD48B" p-id="86468"></path><path d="M402.8416 512h54.6816v54.6816h-54.6816zM293.4784 512H348.16v54.6816h-54.6816z" fill="#FAD48B" p-id="86469"></path><path d="M239.0016 512h54.6816v54.6816h-54.6816zM184.32 512h54.6816v54.6816H184.32zM129.6384 512H184.32v54.6816H129.6384zM129.6384 566.6816H184.32v54.6816H129.6384zM184.32 566.6816h54.6816v54.6816H184.32zM239.0016 566.6816h54.6816v54.6816h-54.6816z" fill="#FAD48B" p-id="86470"></path><path d="M293.4784 566.6816H348.16v54.6816h-54.6816z" fill="#FAD48B" p-id="86471"></path><path d="M293.4784 621.1584H348.16V675.84h-54.6816zM348.16 621.1584h54.6816V675.84H348.16zM402.8416 621.1584h54.6816V675.84h-54.6816z" fill="#FAD48B" p-id="86472"></path><path d="M457.3184 621.1584H512V675.84h-54.6816zM512 621.1584h54.6816V675.84H512zM566.6816 621.1584h54.6816V675.84h-54.6816z" fill="#FAD48B" p-id="86473"></path><path d="M621.1584 621.1584H675.84V675.84h-54.6816zM675.84 621.1584h54.6816V675.84H675.84zM730.5216 621.1584h54.6816V675.84h-54.6816z" fill="#FAD48B" p-id="86474"></path><path d="M784.9984 621.1584H839.68V675.84h-54.6816zM839.68 621.1584h54.6816V675.84H839.68z" fill="#FAD48B" p-id="86475"></path><path d="M839.68 566.6816h54.6816v54.6816H839.68zM784.9984 566.6816H839.68v54.6816h-54.6816z" fill="#FAD48B" p-id="86476"></path><path d="M730.5216 566.6816h54.6816v54.6816h-54.6816zM675.84 566.6816h54.6816v54.6816H675.84zM239.0016 621.1584h54.6816V675.84h-54.6816zM184.32 621.1584h54.6816V675.84H184.32zM129.6384 621.1584H184.32V675.84H129.6384zM129.6384 675.84H184.32v54.6816H129.6384zM184.32 675.84h54.6816v54.6816H184.32zM239.0016 675.84h54.6816v54.6816h-54.6816z" fill="#FAD48B" p-id="86477"></path><path d="M293.4784 675.84H348.16v54.6816h-54.6816zM348.16 675.84h54.6816v54.6816H348.16zM402.8416 675.84h54.6816v54.6816h-54.6816z" fill="#FAD48B" p-id="86478"></path><path d="M457.3184 675.84H512v54.6816h-54.6816zM512 675.84h54.6816v54.6816H512zM566.6816 675.84h54.6816v54.6816h-54.6816z" fill="#FAD48B" p-id="86479"></path><path d="M621.1584 675.84H675.84v54.6816h-54.6816zM675.84 675.84h54.6816v54.6816H675.84zM730.5216 675.84h54.6816v54.6816h-54.6816z" fill="#FAD48B" p-id="86480"></path><path d="M784.9984 675.84H839.68v54.6816h-54.6816zM839.68 675.84h54.6816v54.6816H839.68zM839.68 730.5216h54.6816v54.6816H839.68zM784.9984 730.5216H839.68v54.6816h-54.6816z" fill="#FAD48B" p-id="86481"></path><path d="M730.5216 730.5216h54.6816v54.6816h-54.6816zM675.84 730.5216h54.6816v54.6816H675.84zM621.1584 730.5216H675.84v54.6816h-54.6816z" fill="#FAD48B" p-id="86482"></path><path d="M566.6816 730.5216h54.6816v54.6816h-54.6816zM512 730.5216h54.6816v54.6816H512zM457.3184 730.5216H512v54.6816h-54.6816z" fill="#FAD48B" p-id="86483"></path><path d="M402.8416 730.5216h54.6816v54.6816h-54.6816zM348.16 730.5216h54.6816v54.6816H348.16zM293.4784 730.5216H348.16v54.6816h-54.6816z" fill="#FAD48B" p-id="86484"></path><path d="M239.0016 730.5216h54.6816v54.6816h-54.6816zM184.32 730.5216h54.6816v54.6816H184.32zM129.6384 730.5216H184.32v54.6816H129.6384z" fill="#FAD48B" p-id="86485"></path><path d="M129.6384 784.9984H184.32V839.68H129.6384zM184.32 784.9984h54.6816V839.68H184.32zM239.0016 784.9984h54.6816V839.68h-54.6816z" fill="#FEE5AC" p-id="86486"></path><path d="M293.4784 784.9984H348.16V839.68h-54.6816zM348.16 784.9984h54.6816V839.68H348.16zM402.8416 784.9984h54.6816V839.68h-54.6816z" fill="#FEE5AC" p-id="86487"></path><path d="M457.3184 784.9984H512V839.68h-54.6816zM512 784.9984h54.6816V839.68H512zM566.6816 784.9984h54.6816V839.68h-54.6816z" fill="#FEE5AC" p-id="86488"></path><path d="M621.1584 784.9984H675.84V839.68h-54.6816zM675.84 784.9984h54.6816V839.68H675.84zM730.5216 784.9984h54.6816V839.68h-54.6816z" fill="#FEE5AC" p-id="86489"></path><path d="M784.9984 784.9984H839.68V839.68h-54.6816zM839.68 784.9984h54.6816V839.68H839.68zM839.68 839.68h54.6816v54.6816H839.68zM839.68 894.3616h54.6816v54.6816H839.68zM784.9984 894.3616H839.68v54.6816h-54.6816z" fill="#FEE5AC" p-id="86490"></path><path d="M730.5216 894.3616h54.6816v54.6816h-54.6816zM675.84 894.3616h54.6816v54.6816H675.84zM621.1584 894.3616H675.84v54.6816h-54.6816z" fill="#FEE5AC" p-id="86491"></path><path d="M566.6816 894.3616h54.6816v54.6816h-54.6816zM512 894.3616h54.6816v54.6816H512zM457.3184 894.3616H512v54.6816h-54.6816z" fill="#FEE5AC" p-id="86492"></path><path d="M402.8416 894.3616h54.6816v54.6816h-54.6816zM348.16 894.3616h54.6816v54.6816H348.16zM293.4784 894.3616H348.16v54.6816h-54.6816z" fill="#FEE5AC" p-id="86493"></path><path d="M239.0016 894.3616h54.6816v54.6816h-54.6816zM184.32 894.3616h54.6816v54.6816H184.32zM129.6384 894.3616H184.32v54.6816H129.6384zM129.6384 839.68H184.32v54.6816H129.6384zM184.32 839.68h54.6816v54.6816H184.32zM239.0016 839.68h54.6816v54.6816h-54.6816z" fill="#FEE5AC" p-id="86494"></path><path d="M293.4784 839.68H348.16v54.6816h-54.6816zM348.16 839.68h54.6816v54.6816H348.16zM402.8416 839.68h54.6816v54.6816h-54.6816z" fill="#FEE5AC" p-id="86495"></path><path d="M457.3184 839.68H512v54.6816h-54.6816zM512 839.68h54.6816v54.6816H512zM566.6816 839.68h54.6816v54.6816h-54.6816z" fill="#FEE5AC" p-id="86496"></path><path d="M621.1584 839.68H675.84v54.6816h-54.6816zM675.84 839.68h54.6816v54.6816H675.84zM730.5216 839.68h54.6816v54.6816h-54.6816z" fill="#FEE5AC" p-id="86497"></path><path d="M784.9984 839.68H839.68v54.6816h-54.6816z" fill="#FEE5AC" p-id="86498"></path><path d="M75.1616 402.8416h54.6816v54.6816H75.1616z" fill="#553A49" p-id="86499"></path><path d="M75.1616 457.3184h54.6816V512H75.1616zM75.1616 512h54.6816v54.6816H75.1616zM75.1616 566.6816h54.6816v54.6816H75.1616z" fill="#553A49" p-id="86500"></path><path d="M75.1616 621.1584h54.6816V675.84H75.1616zM75.1616 675.84h54.6816v54.6816H75.1616zM75.1616 730.5216h54.6816v54.6816H75.1616z" fill="#553A49" p-id="86501"></path><path d="M75.1616 784.9984h54.6816V839.68H75.1616zM75.1616 839.68h54.6816v54.6816H75.1616zM75.1616 894.3616h54.6816v54.6816H75.1616z" fill="#553A49" p-id="86502"></path><path d="M75.1616 948.8384h54.6816V1003.52H75.1616z" fill="#553A49" p-id="86503"></path></svg>