<?xml version="1.0" standalone="no"?><!DOCTYPE svg PUBLIC "-//W3C//DTD SVG 1.1//EN" "http://www.w3.org/Graphics/SVG/1.1/DTD/svg11.dtd"><svg t="1715587046561" class="icon" viewBox="0 0 1024 1024" version="1.1" xmlns="http://www.w3.org/2000/svg" p-id="87979" width="81" height="81" xmlns:xlink="http://www.w3.org/1999/xlink"><path d="M20.48 540.8768h57.7536v57.7536H20.48zM78.2336 483.1232h57.7536v57.7536H78.2336zM136.192 425.1648h57.7536v57.7536H136.192zM193.9456 425.1648h57.7536v57.7536H193.9456zM193.9456 367.4112h57.7536v57.7536H193.9456zM193.9456 309.6576h57.7536v57.7536H193.9456zM251.6992 251.6992h57.7536v57.7536h-57.7536z" fill="#553A49" p-id="87980"></path><path d="M309.6576 251.6992h57.7536v57.7536h-57.7536z" fill="#D0EEF9" p-id="87981"></path><path d="M309.6576 309.6576h57.7536v57.7536h-57.7536zM367.4112 309.6576h57.7536v57.7536h-57.7536zM425.1648 309.6576h57.7536v57.7536h-57.7536zM483.1232 309.6576h57.7536v57.7536h-57.7536zM540.8768 309.6576h57.7536v57.7536h-57.7536zM598.8352 309.6576h57.7536v57.7536h-57.7536zM656.5888 309.6576h57.7536v57.7536h-57.7536zM656.5888 367.4112h57.7536v57.7536h-57.7536zM598.8352 367.4112h57.7536v57.7536h-57.7536zM540.8768 367.4112h57.7536v57.7536h-57.7536zM483.1232 367.4112h57.7536v57.7536h-57.7536zM425.1648 367.4112h57.7536v57.7536h-57.7536zM367.4112 367.4112h57.7536v57.7536h-57.7536zM309.6576 367.4112h57.7536v57.7536h-57.7536zM251.6992 367.4112h57.7536v57.7536h-57.7536zM251.6992 425.1648h57.7536v57.7536h-57.7536zM309.6576 425.1648h57.7536v57.7536h-57.7536zM367.4112 425.1648h57.7536v57.7536h-57.7536zM425.1648 425.1648h57.7536v57.7536h-57.7536zM483.1232 425.1648h57.7536v57.7536h-57.7536zM540.8768 425.1648h57.7536v57.7536h-57.7536zM598.8352 425.1648h57.7536v57.7536h-57.7536zM656.5888 425.1648h57.7536v57.7536h-57.7536zM656.5888 483.1232h57.7536v57.7536h-57.7536zM598.8352 483.1232h57.7536v57.7536h-57.7536zM540.8768 483.1232h57.7536v57.7536h-57.7536zM483.1232 483.1232h57.7536v57.7536h-57.7536zM425.1648 483.1232h57.7536v57.7536h-57.7536zM367.4112 483.1232h57.7536v57.7536h-57.7536zM309.6576 483.1232h57.7536v57.7536h-57.7536zM309.6576 540.8768h57.7536v57.7536h-57.7536zM367.4112 540.8768h57.7536v57.7536h-57.7536zM425.1648 540.8768h57.7536v57.7536h-57.7536zM483.1232 540.8768h57.7536v57.7536h-57.7536zM540.8768 540.8768h57.7536v57.7536h-57.7536zM598.8352 540.8768h57.7536v57.7536h-57.7536zM656.5888 540.8768h57.7536v57.7536h-57.7536zM714.3424 540.8768h57.7536v57.7536h-57.7536zM772.3008 540.8768h57.7536v57.7536h-57.7536zM830.0544 540.8768h57.7536v57.7536h-57.7536zM830.0544 598.8352h57.7536v57.7536h-57.7536zM830.0544 656.5888h57.7536v57.7536h-57.7536zM772.3008 656.5888h57.7536v57.7536h-57.7536zM714.3424 656.5888h57.7536v57.7536h-57.7536zM656.5888 656.5888h57.7536v57.7536h-57.7536zM598.8352 656.5888h57.7536v57.7536h-57.7536zM540.8768 656.5888h57.7536v57.7536h-57.7536zM483.1232 656.5888h57.7536v57.7536h-57.7536zM425.1648 656.5888h57.7536v57.7536h-57.7536zM367.4112 656.5888h57.7536v57.7536h-57.7536zM309.6576 656.5888h57.7536v57.7536h-57.7536zM251.6992 656.5888h57.7536v57.7536h-57.7536z" fill="#AFD8EA" p-id="87982"></path><path d="M193.9456 656.5888h57.7536v57.7536H193.9456zM136.192 656.5888h57.7536v57.7536H136.192zM887.808 598.8352h57.7536v57.7536h-57.7536zM772.3008 598.8352h57.7536v57.7536h-57.7536zM714.3424 598.8352h57.7536v57.7536h-57.7536zM656.5888 598.8352h57.7536v57.7536h-57.7536zM598.8352 598.8352h57.7536v57.7536h-57.7536zM540.8768 598.8352h57.7536v57.7536h-57.7536zM483.1232 598.8352h57.7536v57.7536h-57.7536zM425.1648 598.8352h57.7536v57.7536h-57.7536zM367.4112 598.8352h57.7536v57.7536h-57.7536zM309.6576 598.8352h57.7536v57.7536h-57.7536zM251.6992 598.8352h57.7536v57.7536h-57.7536z" fill="#AFD8EA" p-id="87983"></path><path d="M193.9456 598.8352h57.7536v57.7536H193.9456zM136.192 598.8352h57.7536v57.7536H136.192zM78.2336 598.8352h57.7536v57.7536H78.2336z" fill="#AFD8EA" p-id="87984"></path><path d="M78.2336 656.5888h57.7536v57.7536H78.2336zM136.192 714.3424h57.7536v57.7536H136.192zM193.9456 714.3424h57.7536v57.7536H193.9456z" fill="#96BDCE" p-id="87985"></path><path d="M251.6992 714.3424h57.7536v57.7536h-57.7536zM309.6576 714.3424h57.7536v57.7536h-57.7536zM367.4112 714.3424h57.7536v57.7536h-57.7536zM425.1648 714.3424h57.7536v57.7536h-57.7536zM483.1232 714.3424h57.7536v57.7536h-57.7536zM540.8768 714.3424h57.7536v57.7536h-57.7536zM598.8352 714.3424h57.7536v57.7536h-57.7536zM656.5888 714.3424h57.7536v57.7536h-57.7536zM714.3424 714.3424h57.7536v57.7536h-57.7536zM772.3008 714.3424h57.7536v57.7536h-57.7536zM830.0544 714.3424h57.7536v57.7536h-57.7536zM887.808 656.5888h57.7536v57.7536h-57.7536z" fill="#96BDCE" p-id="87986"></path><path d="M251.6992 540.8768h57.7536v57.7536h-57.7536z" fill="#AFD8EA" p-id="87987"></path><path d="M193.9456 540.8768h57.7536v57.7536H193.9456zM136.192 540.8768h57.7536v57.7536H136.192zM714.3424 425.1648h57.7536v57.7536h-57.7536zM714.3424 367.4112h57.7536v57.7536h-57.7536z" fill="#AFD8EA" p-id="87988"></path><path d="M367.4112 251.6992h57.7536v57.7536h-57.7536zM425.1648 251.6992h57.7536v57.7536h-57.7536zM483.1232 251.6992h57.7536v57.7536h-57.7536zM540.8768 251.6992h57.7536v57.7536h-57.7536zM598.8352 251.6992h57.7536v57.7536h-57.7536zM656.5888 251.6992h57.7536v57.7536h-57.7536zM251.6992 309.6576h57.7536v57.7536h-57.7536zM714.3424 309.6576h57.7536v57.7536h-57.7536zM772.3008 483.1232h57.7536v57.7536h-57.7536zM136.192 483.1232h57.7536v57.7536H136.192zM193.9456 483.1232h57.7536v57.7536H193.9456zM78.2336 540.8768h57.7536v57.7536H78.2336zM830.0544 483.1232h57.7536v57.7536h-57.7536zM887.808 540.8768h57.7536v57.7536h-57.7536z" fill="#D0EEF9" p-id="87989"></path><path d="M251.6992 483.1232h57.7536v57.7536h-57.7536zM78.2336 714.3424h57.7536v57.7536H78.2336zM136.192 772.3008h57.7536v57.7536H136.192zM193.9456 772.3008h57.7536v57.7536H193.9456z" fill="#553A49" p-id="87990"></path><path d="M251.6992 772.3008h57.7536v57.7536h-57.7536zM309.6576 772.3008h57.7536v57.7536h-57.7536zM367.4112 772.3008h57.7536v57.7536h-57.7536zM425.1648 772.3008h57.7536v57.7536h-57.7536zM483.1232 772.3008h57.7536v57.7536h-57.7536zM540.8768 772.3008h57.7536v57.7536h-57.7536zM598.8352 772.3008h57.7536v57.7536h-57.7536zM656.5888 772.3008h57.7536v57.7536h-57.7536zM714.3424 772.3008h57.7536v57.7536h-57.7536zM772.3008 772.3008h57.7536v57.7536h-57.7536zM830.0544 772.3008h57.7536v57.7536h-57.7536zM309.6576 193.9456h57.7536v57.7536h-57.7536zM367.4112 193.9456h57.7536v57.7536h-57.7536zM425.1648 193.9456h57.7536v57.7536h-57.7536zM483.1232 193.9456h57.7536v57.7536h-57.7536zM540.8768 193.9456h57.7536v57.7536h-57.7536zM598.8352 193.9456h57.7536v57.7536h-57.7536zM656.5888 193.9456h57.7536v57.7536h-57.7536zM20.48 598.8352h57.7536v57.7536H20.48zM20.48 656.5888h57.7536v57.7536H20.48zM1003.45856 598.77376h-57.7536v-57.7536h57.7536zM945.7664 540.8768h-57.7536v-57.7536h57.7536zM887.84896 483.18464h-57.7536v-57.7536h57.7536zM829.952 483.18464h-57.7536v-57.7536h57.7536zM829.952 425.28768h-57.7536v-57.7536h57.7536zM829.952 367.39072h-57.7536v-57.7536h57.7536z" fill="#553A49" p-id="87991"></path><path d="M772.25984 309.69856h-57.7536v-57.7536h57.7536zM772.25984 540.8768h-57.7536v-57.7536h57.7536zM945.7664 772.25984h-57.7536v-57.7536h57.7536zM1003.45856 656.46592h-57.7536v-57.7536h57.7536zM1003.45856 714.36288h-57.7536v-57.7536h57.7536z" fill="#553A49" p-id="87992"></path></svg>